<svg width="386" height="217" viewBox="0 0 386 217" fill="none" xmlns="http://www.w3.org/2000/svg">
<g clip-path="url(#clip0_977_14730)">
<path d="M131.907 9.59229H38.9695C33.2082 9.59229 28.5377 14.2565 28.5377 20.01C28.5377 25.7636 33.2082 30.4278 38.9695 30.4278H131.907C137.668 30.4278 142.339 25.7636 142.339 20.01C142.339 14.2565 137.668 9.59229 131.907 9.59229Z" fill="#F9F9F9"/>
<path d="M114.837 51.2632H10.5192C4.75786 51.2632 0.0874023 55.9274 0.0874023 61.6809C0.0874023 67.4345 4.75786 72.0987 10.5192 72.0987H114.837C120.598 72.0987 125.269 67.4345 125.269 61.6809C125.269 55.9274 120.598 51.2632 114.837 51.2632Z" fill="#F9F9F9"/>
<path d="M367.096 72.0988H207.774C202.013 72.0988 197.343 76.7629 197.343 82.5165C197.343 88.2701 202.013 92.9342 207.774 92.9342H367.096C372.857 92.9342 377.527 88.2701 377.527 82.5165C377.527 76.7629 372.857 72.0988 367.096 72.0988Z" fill="#F9F9F9"/>
<path d="M261.83 196.164H132.855C127.094 196.164 122.423 200.829 122.423 206.582C122.423 212.336 127.094 217 132.855 217H261.83C267.591 217 272.261 212.336 272.261 206.582C272.261 200.829 267.591 196.164 261.83 196.164Z" fill="#F9F9F9"/>
<path d="M202.084 155.441H73.1097C67.3484 155.441 62.678 160.105 62.678 165.858C62.678 171.612 67.3484 176.276 73.1097 176.276H202.084C207.846 176.276 212.516 171.612 212.516 165.858C212.516 160.105 207.846 155.441 202.084 155.441Z" fill="#F9F9F9"/>
<path d="M350.974 113.77H39.9177C34.1564 113.77 29.486 118.434 29.486 124.187C29.486 129.941 34.1564 134.605 39.9177 134.605H350.974C356.735 134.605 361.406 129.941 361.406 124.187C361.406 118.434 356.735 113.77 350.974 113.77Z" fill="#F9F9F9"/>
<path fill-rule="evenodd" clip-rule="evenodd" d="M145.184 30.4277H20.0026H40.3919C46.082 30.4277 50.8237 35.1631 50.8237 40.8455C50.8237 46.5279 46.082 51.2632 40.3919 51.2632H20.0026H145.184H110.569C104.879 51.2632 100.137 46.5279 100.137 40.8455C100.137 35.1631 104.879 30.4277 110.569 30.4277H145.184ZM384.166 92.9342H273.21H307.824C313.514 92.9342 318.256 97.6695 318.256 103.352C318.256 109.034 313.514 113.77 307.824 113.77H273.21H384.166H349.551C343.861 113.77 339.12 109.034 339.12 103.352C339.12 97.6695 343.861 92.9342 349.551 92.9342H384.166ZM152.77 134.605H41.8144H76.4289C82.1189 134.605 86.8607 139.34 86.8607 145.023C86.8607 150.705 82.1189 155.441 76.4289 155.441H41.8144H152.77H118.156C112.466 155.441 107.724 150.705 107.724 145.023C107.724 139.34 112.466 134.605 118.156 134.605H152.77ZM223.896 176.276H112.94H133.329C139.019 176.276 143.761 181.011 143.761 186.694C143.761 192.376 139.019 197.112 133.329 197.112H112.94H223.896H175.056C169.366 197.112 164.625 192.376 164.625 186.694C164.625 181.011 169.366 176.276 175.056 176.276H223.896Z" fill="#F9F9F9"/>
<path d="M311.144 21.9042H66.4713C61.2338 21.9042 56.9879 26.1443 56.9879 31.3748V181.959C56.9879 187.189 61.2338 191.429 66.4713 191.429H311.144C316.381 191.429 320.627 187.189 320.627 181.959V31.3748C320.627 26.1443 316.381 21.9042 311.144 21.9042Z" fill="white" stroke="#EEEEEE" stroke-width="8"/>
<path fill-rule="evenodd" clip-rule="evenodd" d="M60.7812 49.3691H317.782V53.1574H60.7812V49.3691Z" fill="#EEEEEE"/>
<path d="M93.9733 79.6752H90.1799C89.6562 79.6752 89.2316 80.0992 89.2316 80.6222C89.2316 81.1453 89.6562 81.5693 90.1799 81.5693H93.9733C94.497 81.5693 94.9216 81.1453 94.9216 80.6222C94.9216 80.0992 94.497 79.6752 93.9733 79.6752Z" fill="#B5A7DD"/>
<path d="M115.785 78.7281H105.353C104.306 78.7281 103.457 79.5762 103.457 80.6223C103.457 81.6684 104.306 82.5164 105.353 82.5164H115.785C116.833 82.5164 117.682 81.6684 117.682 80.6223C117.682 79.5762 116.833 78.7281 115.785 78.7281Z" fill="#EEEEEE"/>
<path d="M169.841 78.7281H159.409C158.361 78.7281 157.512 79.5762 157.512 80.6223C157.512 81.6684 158.361 82.5164 159.409 82.5164H169.841C170.888 82.5164 171.737 81.6684 171.737 80.6223C171.737 79.5762 170.888 78.7281 169.841 78.7281Z" fill="#EEEEEE"/>
<path d="M138.545 99.5636H128.114C127.066 99.5636 126.217 100.412 126.217 101.458C126.217 102.504 127.066 103.352 128.114 103.352H138.545C139.593 103.352 140.442 102.504 140.442 101.458C140.442 100.412 139.593 99.5636 138.545 99.5636Z" fill="#EEEEEE"/>
<path d="M151.822 89.1459H141.39C140.343 89.1459 139.494 89.9939 139.494 91.04C139.494 92.0861 140.343 92.9341 141.39 92.9341H151.822C152.87 92.9341 153.719 92.0861 153.719 91.04C153.719 89.9939 152.87 89.1459 151.822 89.1459Z" fill="#FC6D26"/>
<path opacity="0.5" d="M151.822 78.7281H136.649C135.601 78.7281 134.752 79.5762 134.752 80.6223C134.752 81.6684 135.601 82.5164 136.649 82.5164H151.822C152.87 82.5164 153.719 81.6684 153.719 80.6223C153.719 79.5762 152.87 78.7281 151.822 78.7281Z" fill="#FC6D26"/>
<path d="M120.527 99.5636H105.353C104.306 99.5636 103.457 100.412 103.457 101.458C103.457 102.504 104.306 103.352 105.353 103.352H120.527C121.574 103.352 122.424 102.504 122.424 101.458C122.424 100.412 121.574 99.5636 120.527 99.5636Z" fill="#EEEEEE"/>
<path d="M133.804 89.1459H118.63C117.583 89.1459 116.734 89.9939 116.734 91.04C116.734 92.0861 117.583 92.9341 118.63 92.9341H133.804C134.851 92.9341 135.7 92.0861 135.7 91.04C135.7 89.9939 134.851 89.1459 133.804 89.1459Z" fill="#EEEEEE"/>
<path d="M129.062 78.7281H123.372C122.324 78.7281 121.475 79.5762 121.475 80.6223C121.475 81.6684 122.324 82.5164 123.372 82.5164H129.062C130.109 82.5164 130.959 81.6684 130.959 80.6223C130.959 79.5762 130.109 78.7281 129.062 78.7281Z" fill="#FC6D26"/>
<path d="M111.043 89.1459H105.353C104.306 89.1459 103.457 89.9939 103.457 91.04C103.457 92.0861 104.306 92.9341 105.353 92.9341H111.043C112.091 92.9341 112.94 92.0861 112.94 91.04C112.94 89.9939 112.091 89.1459 111.043 89.1459Z" fill="#EEEEEE"/>
<path d="M93.9733 90.093H90.1799C89.6562 90.093 89.2316 90.517 89.2316 91.0401C89.2316 91.5631 89.6562 91.9872 90.1799 91.9872H93.9733C94.497 91.9872 94.9216 91.5631 94.9216 91.0401C94.9216 90.517 94.497 90.093 93.9733 90.093Z" fill="#B5A7DD"/>
<path d="M93.9733 100.511H90.1799C89.6562 100.511 89.2316 100.935 89.2316 101.458C89.2316 101.981 89.6562 102.405 90.1799 102.405H93.9733C94.497 102.405 94.9216 101.981 94.9216 101.458C94.9216 100.935 94.497 100.511 93.9733 100.511Z" fill="#B5A7DD"/>
<path d="M93.9733 110.928H90.1799C89.6562 110.928 89.2316 111.352 89.2316 111.876C89.2316 112.399 89.6562 112.823 90.1799 112.823H93.9733C94.497 112.823 94.9216 112.399 94.9216 111.876C94.9216 111.352 94.497 110.928 93.9733 110.928Z" fill="#B5A7DD"/>
<path d="M115.785 109.981H105.353C104.306 109.981 103.457 110.829 103.457 111.876C103.457 112.922 104.306 113.77 105.353 113.77H115.785C116.833 113.77 117.682 112.922 117.682 111.876C117.682 110.829 116.833 109.981 115.785 109.981Z" fill="#FC6D26"/>
<path d="M169.841 109.981H159.409C158.361 109.981 157.512 110.829 157.512 111.876C157.512 112.922 158.361 113.77 159.409 113.77H169.841C170.888 113.77 171.737 112.922 171.737 111.876C171.737 110.829 170.888 109.981 169.841 109.981Z" fill="#EEEEEE"/>
<path opacity="0.5" d="M138.545 130.817H128.114C127.066 130.817 126.217 131.665 126.217 132.711C126.217 133.757 127.066 134.605 128.114 134.605H138.545C139.593 134.605 140.442 133.757 140.442 132.711C140.442 131.665 139.593 130.817 138.545 130.817Z" fill="#FC6D26"/>
<path d="M151.822 120.399H141.39C140.343 120.399 139.494 121.247 139.494 122.293C139.494 123.339 140.343 124.187 141.39 124.187H151.822C152.87 124.187 153.719 123.339 153.719 122.293C153.719 121.247 152.87 120.399 151.822 120.399Z" fill="#EEEEEE"/>
<path d="M151.822 109.981H136.649C135.601 109.981 134.752 110.829 134.752 111.876C134.752 112.922 135.601 113.77 136.649 113.77H151.822C152.87 113.77 153.719 112.922 153.719 111.876C153.719 110.829 152.87 109.981 151.822 109.981Z" fill="#FC6D26"/>
<path d="M120.527 130.817H105.353C104.306 130.817 103.457 131.665 103.457 132.711C103.457 133.757 104.306 134.605 105.353 134.605H120.527C121.574 134.605 122.424 133.757 122.424 132.711C122.424 131.665 121.574 130.817 120.527 130.817Z" fill="#FC6D26"/>
<path d="M133.804 120.399H118.63C117.583 120.399 116.734 121.247 116.734 122.293C116.734 123.339 117.583 124.187 118.63 124.187H133.804C134.851 124.187 135.7 123.339 135.7 122.293C135.7 121.247 134.851 120.399 133.804 120.399Z" fill="#EEEEEE"/>
<path opacity="0.5" d="M129.062 109.981H123.372C122.324 109.981 121.475 110.829 121.475 111.876C121.475 112.922 122.324 113.77 123.372 113.77H129.062C130.109 113.77 130.959 112.922 130.959 111.876C130.959 110.829 130.109 109.981 129.062 109.981Z" fill="#FC6D26"/>
<path d="M111.043 120.399H105.353C104.306 120.399 103.457 121.247 103.457 122.293C103.457 123.339 104.306 124.187 105.353 124.187H111.043C112.091 124.187 112.94 123.339 112.94 122.293C112.94 121.247 112.091 120.399 111.043 120.399Z" fill="#EEEEEE"/>
<path d="M93.9733 121.346H90.1799C89.6562 121.346 89.2316 121.77 89.2316 122.293C89.2316 122.816 89.6562 123.24 90.1799 123.24H93.9733C94.497 123.24 94.9216 122.816 94.9216 122.293C94.9216 121.77 94.497 121.346 93.9733 121.346Z" fill="#B5A7DD"/>
<path d="M93.9733 131.764H90.1799C89.6562 131.764 89.2316 132.188 89.2316 132.711C89.2316 133.234 89.6562 133.658 90.1799 133.658H93.9733C94.497 133.658 94.9216 133.234 94.9216 132.711C94.9216 132.188 94.497 131.764 93.9733 131.764Z" fill="#B5A7DD"/>
<path d="M93.9733 142.182H90.1799C89.6562 142.182 89.2316 142.606 89.2316 143.129C89.2316 143.652 89.6562 144.076 90.1799 144.076H93.9733C94.497 144.076 94.9216 143.652 94.9216 143.129C94.9216 142.606 94.497 142.182 93.9733 142.182Z" fill="#B5A7DD"/>
<path d="M115.785 141.235H105.353C104.306 141.235 103.457 142.083 103.457 143.129C103.457 144.175 104.306 145.023 105.353 145.023H115.785C116.833 145.023 117.682 144.175 117.682 143.129C117.682 142.083 116.833 141.235 115.785 141.235Z" fill="#EEEEEE"/>
<path d="M169.841 141.235H159.409C158.361 141.235 157.512 142.083 157.512 143.129C157.512 144.175 158.361 145.023 159.409 145.023H169.841C170.888 145.023 171.737 144.175 171.737 143.129C171.737 142.083 170.888 141.235 169.841 141.235Z" fill="#EEEEEE"/>
<path d="M138.545 162.07H128.114C127.066 162.07 126.217 162.918 126.217 163.964C126.217 165.01 127.066 165.858 128.114 165.858H138.545C139.593 165.858 140.442 165.01 140.442 163.964C140.442 162.918 139.593 162.07 138.545 162.07Z" fill="#EEEEEE"/>
<path d="M151.822 151.652H141.39C140.343 151.652 139.494 152.5 139.494 153.546C139.494 154.593 140.343 155.441 141.39 155.441H151.822C152.87 155.441 153.719 154.593 153.719 153.546C153.719 152.5 152.87 151.652 151.822 151.652Z" fill="#EEEEEE"/>
<path d="M151.822 141.235H136.649C135.601 141.235 134.752 142.083 134.752 143.129C134.752 144.175 135.601 145.023 136.649 145.023H151.822C152.87 145.023 153.719 144.175 153.719 143.129C153.719 142.083 152.87 141.235 151.822 141.235Z" fill="#FC6D26"/>
<path d="M120.527 162.07H105.353C104.306 162.07 103.457 162.918 103.457 163.964C103.457 165.01 104.306 165.858 105.353 165.858H120.527C121.574 165.858 122.424 165.01 122.424 163.964C122.424 162.918 121.574 162.07 120.527 162.07Z" fill="#EEEEEE"/>
<path d="M133.804 151.652H118.63C117.583 151.652 116.734 152.5 116.734 153.546C116.734 154.593 117.583 155.441 118.63 155.441H133.804C134.851 155.441 135.7 154.593 135.7 153.546C135.7 152.5 134.851 151.652 133.804 151.652Z" fill="#EEEEEE"/>
<path opacity="0.5" d="M129.062 141.235H123.372C122.324 141.235 121.475 142.083 121.475 143.129C121.475 144.175 122.324 145.023 123.372 145.023H129.062C130.109 145.023 130.959 144.175 130.959 143.129C130.959 142.083 130.109 141.235 129.062 141.235Z" fill="#FC6D26"/>
<path d="M111.043 151.652H105.353C104.306 151.652 103.457 152.5 103.457 153.546C103.457 154.593 104.306 155.441 105.353 155.441H111.043C112.091 155.441 112.94 154.593 112.94 153.546C112.94 152.5 112.091 151.652 111.043 151.652Z" fill="#EEEEEE"/>
<path d="M93.9733 152.599H90.1799C89.6562 152.599 89.2316 153.024 89.2316 153.547C89.2316 154.07 89.6562 154.494 90.1799 154.494H93.9733C94.497 154.494 94.9216 154.07 94.9216 153.547C94.9216 153.024 94.497 152.599 93.9733 152.599Z" fill="#B5A7DD"/>
<path d="M93.9733 163.017H90.1799C89.6562 163.017 89.2316 163.441 89.2316 163.964C89.2316 164.487 89.6562 164.911 90.1799 164.911H93.9733C94.497 164.911 94.9216 164.487 94.9216 163.964C94.9216 163.441 94.497 163.017 93.9733 163.017Z" fill="#B5A7DD"/>
<path d="M210.619 78.7281H206.826C206.302 78.7281 205.878 79.1522 205.878 79.6752C205.878 80.1983 206.302 80.6223 206.826 80.6223H210.619C211.143 80.6223 211.568 80.1983 211.568 79.6752C211.568 79.1522 211.143 78.7281 210.619 78.7281Z" fill="#FDE5D8"/>
<path d="M232.431 77.7811H221.999C220.952 77.7811 220.103 78.6292 220.103 79.6753C220.103 80.7214 220.952 81.5694 221.999 81.5694H232.431C233.479 81.5694 234.328 80.7214 234.328 79.6753C234.328 78.6292 233.479 77.7811 232.431 77.7811Z" fill="#EEEEEE"/>
<path d="M286.487 77.7811H276.055C275.007 77.7811 274.158 78.6292 274.158 79.6753C274.158 80.7214 275.007 81.5694 276.055 81.5694H286.487C287.534 81.5694 288.383 80.7214 288.383 79.6753C288.383 78.6292 287.534 77.7811 286.487 77.7811Z" fill="#EEEEEE"/>
<path opacity="0.5" d="M255.191 98.6166H244.76C243.712 98.6166 242.863 99.4646 242.863 100.511C242.863 101.557 243.712 102.405 244.76 102.405H255.191C256.239 102.405 257.088 101.557 257.088 100.511C257.088 99.4646 256.239 98.6166 255.191 98.6166Z" fill="#6B4FBB"/>
<path d="M268.468 88.1989H258.036C256.989 88.1989 256.14 89.0469 256.14 90.093C256.14 91.1391 256.989 91.9871 258.036 91.9871H268.468C269.516 91.9871 270.365 91.1391 270.365 90.093C270.365 89.0469 269.516 88.1989 268.468 88.1989Z" fill="#6B4FBB"/>
<path opacity="0.5" d="M268.468 77.7811H253.295C252.247 77.7811 251.398 78.6292 251.398 79.6753C251.398 80.7214 252.247 81.5694 253.295 81.5694H268.468C269.516 81.5694 270.365 80.7214 270.365 79.6753C270.365 78.6292 269.516 77.7811 268.468 77.7811Z" fill="#6B4FBB"/>
<path d="M237.173 98.6166H221.999C220.952 98.6166 220.103 99.4646 220.103 100.511C220.103 101.557 220.952 102.405 221.999 102.405H237.173C238.22 102.405 239.07 101.557 239.07 100.511C239.07 99.4646 238.22 98.6166 237.173 98.6166Z" fill="#6B4FBB"/>
<path d="M250.45 88.1989H235.276C234.229 88.1989 233.38 89.0469 233.38 90.093C233.38 91.1391 234.229 91.9871 235.276 91.9871H250.45C251.497 91.9871 252.346 91.1391 252.346 90.093C252.346 89.0469 251.497 88.1989 250.45 88.1989Z" fill="#EEEEEE"/>
<path d="M245.708 77.7811H240.018C238.97 77.7811 238.121 78.6292 238.121 79.6753C238.121 80.7214 238.97 81.5694 240.018 81.5694H245.708C246.755 81.5694 247.605 80.7214 247.605 79.6753C247.605 78.6292 246.755 77.7811 245.708 77.7811Z" fill="#6B4FBB"/>
<path d="M227.69 88.1989H221.999C220.952 88.1989 220.103 89.0469 220.103 90.093C220.103 91.1391 220.952 91.9871 221.999 91.9871H227.69C228.737 91.9871 229.586 91.1391 229.586 90.093C229.586 89.0469 228.737 88.1989 227.69 88.1989Z" fill="#EEEEEE"/>
<path d="M210.619 89.1459H206.826C206.302 89.1459 205.878 89.5699 205.878 90.0929C205.878 90.616 206.302 91.04 206.826 91.04H210.619C211.143 91.04 211.568 90.616 211.568 90.0929C211.568 89.5699 211.143 89.1459 210.619 89.1459Z" fill="#FDE5D8"/>
<path d="M210.619 99.5637H206.826C206.302 99.5637 205.878 99.9877 205.878 100.511C205.878 101.034 206.302 101.458 206.826 101.458H210.619C211.143 101.458 211.568 101.034 211.568 100.511C211.568 99.9877 211.143 99.5637 210.619 99.5637Z" fill="#FDE5D8"/>
<path d="M210.619 109.981H206.826C206.302 109.981 205.878 110.405 205.878 110.929C205.878 111.452 206.302 111.876 206.826 111.876H210.619C211.143 111.876 211.568 111.452 211.568 110.929C211.568 110.405 211.143 109.981 210.619 109.981Z" fill="#FDE5D8"/>
<path d="M232.431 109.034H221.999C220.952 109.034 220.103 109.882 220.103 110.928C220.103 111.975 220.952 112.823 221.999 112.823H232.431C233.479 112.823 234.328 111.975 234.328 110.928C234.328 109.882 233.479 109.034 232.431 109.034Z" fill="#EEEEEE"/>
<path d="M273.21 98.6166H262.778C261.731 98.6166 260.881 99.4646 260.881 100.511C260.881 101.557 261.731 102.405 262.778 102.405H273.21C274.257 102.405 275.107 101.557 275.107 100.511C275.107 99.4646 274.257 98.6166 273.21 98.6166Z" fill="#EEEEEE"/>
<path opacity="0.5" d="M255.191 129.87H244.76C243.712 129.87 242.863 130.718 242.863 131.764C242.863 132.81 243.712 133.658 244.76 133.658H255.191C256.239 133.658 257.088 132.81 257.088 131.764C257.088 130.718 256.239 129.87 255.191 129.87Z" fill="#6B4FBB"/>
<path d="M245.708 119.452H235.276C234.229 119.452 233.38 120.3 233.38 121.346C233.38 122.392 234.229 123.24 235.276 123.24H245.708C246.755 123.24 247.605 122.392 247.605 121.346C247.605 120.3 246.755 119.452 245.708 119.452Z" fill="#6B4FBB"/>
<path d="M268.468 109.034H253.295C252.247 109.034 251.398 109.882 251.398 110.928C251.398 111.975 252.247 112.823 253.295 112.823H268.468C269.516 112.823 270.365 111.975 270.365 110.928C270.365 109.882 269.516 109.034 268.468 109.034Z" fill="#6B4FBB"/>
<path d="M237.173 129.87H221.999C220.952 129.87 220.103 130.718 220.103 131.764C220.103 132.81 220.952 133.658 221.999 133.658H237.173C238.22 133.658 239.07 132.81 239.07 131.764C239.07 130.718 238.22 129.87 237.173 129.87Z" fill="#EEEEEE"/>
<path d="M245.708 109.034H240.018C238.97 109.034 238.121 109.882 238.121 110.928C238.121 111.975 238.97 112.823 240.018 112.823H245.708C246.755 112.823 247.605 111.975 247.605 110.928C247.605 109.882 246.755 109.034 245.708 109.034Z" fill="#EEEEEE"/>
<path d="M227.69 119.452H221.999C220.952 119.452 220.103 120.3 220.103 121.346C220.103 122.392 220.952 123.24 221.999 123.24H227.69C228.737 123.24 229.586 122.392 229.586 121.346C229.586 120.3 228.737 119.452 227.69 119.452Z" fill="#EEEEEE"/>
<path d="M258.985 119.452H253.295C252.247 119.452 251.398 120.3 251.398 121.346C251.398 122.392 252.247 123.24 253.295 123.24H258.985C260.032 123.24 260.881 122.392 260.881 121.346C260.881 120.3 260.032 119.452 258.985 119.452Z" fill="#EEEEEE"/>
<path d="M272.262 119.452H266.571C265.524 119.452 264.675 120.3 264.675 121.346C264.675 122.392 265.524 123.24 266.571 123.24H272.262C273.309 123.24 274.158 122.392 274.158 121.346C274.158 120.3 273.309 119.452 272.262 119.452Z" fill="#EEEEEE"/>
<path d="M286.487 98.6166H280.797C279.749 98.6166 278.9 99.4646 278.9 100.511C278.9 101.557 279.749 102.405 280.797 102.405H286.487C287.534 102.405 288.383 101.557 288.383 100.511C288.383 99.4646 287.534 98.6166 286.487 98.6166Z" fill="#EEEEEE"/>
<path d="M210.619 120.399H206.826C206.302 120.399 205.878 120.823 205.878 121.346C205.878 121.869 206.302 122.293 206.826 122.293H210.619C211.143 122.293 211.568 121.869 211.568 121.346C211.568 120.823 211.143 120.399 210.619 120.399Z" fill="#FDE5D8"/>
<path d="M210.619 130.817H206.826C206.302 130.817 205.878 131.241 205.878 131.764C205.878 132.287 206.302 132.711 206.826 132.711H210.619C211.143 132.711 211.568 132.287 211.568 131.764C211.568 131.241 211.143 130.817 210.619 130.817Z" fill="#FDE5D8"/>
<path d="M210.619 141.235H206.826C206.302 141.235 205.878 141.659 205.878 142.182C205.878 142.705 206.302 143.129 206.826 143.129H210.619C211.143 143.129 211.568 142.705 211.568 142.182C211.568 141.659 211.143 141.235 210.619 141.235Z" fill="#FDE5D8"/>
<path d="M232.431 140.288H221.999C220.952 140.288 220.103 141.136 220.103 142.182C220.103 143.228 220.952 144.076 221.999 144.076H232.431C233.479 144.076 234.328 143.228 234.328 142.182C234.328 141.136 233.479 140.288 232.431 140.288Z" fill="#6B4FBB"/>
<path d="M255.191 161.123H244.76C243.712 161.123 242.863 161.971 242.863 163.017C242.863 164.063 243.712 164.911 244.76 164.911H255.191C256.239 164.911 257.088 164.063 257.088 163.017C257.088 161.971 256.239 161.123 255.191 161.123Z" fill="#EEEEEE"/>
<path opacity="0.5" d="M268.468 150.705H258.036C256.989 150.705 256.14 151.553 256.14 152.599C256.14 153.646 256.989 154.494 258.036 154.494H268.468C269.516 154.494 270.365 153.646 270.365 152.599C270.365 151.553 269.516 150.705 268.468 150.705Z" fill="#6B4FBB"/>
<path d="M237.173 161.123H221.999C220.952 161.123 220.103 161.971 220.103 163.017C220.103 164.063 220.952 164.911 221.999 164.911H237.173C238.22 164.911 239.07 164.063 239.07 163.017C239.07 161.971 238.22 161.123 237.173 161.123Z" fill="#EEEEEE"/>
<path d="M250.45 150.705H235.276C234.229 150.705 233.38 151.553 233.38 152.599C233.38 153.646 234.229 154.494 235.276 154.494H250.45C251.497 154.494 252.346 153.646 252.346 152.599C252.346 151.553 251.497 150.705 250.45 150.705Z" fill="#6B4FBB"/>
<path d="M245.708 140.288H240.018C238.97 140.288 238.121 141.136 238.121 142.182C238.121 143.228 238.97 144.076 240.018 144.076H245.708C246.755 144.076 247.605 143.228 247.605 142.182C247.605 141.136 246.755 140.288 245.708 140.288Z" fill="#EEEEEE"/>
<path d="M281.745 150.705H276.055C275.007 150.705 274.158 151.553 274.158 152.599C274.158 153.646 275.007 154.494 276.055 154.494H281.745C282.793 154.494 283.642 153.646 283.642 152.599C283.642 151.553 282.793 150.705 281.745 150.705Z" fill="#EEEEEE"/>
<path d="M227.69 150.705H221.999C220.952 150.705 220.103 151.553 220.103 152.599C220.103 153.646 220.952 154.494 221.999 154.494H227.69C228.737 154.494 229.586 153.646 229.586 152.599C229.586 151.553 228.737 150.705 227.69 150.705Z" fill="#EEEEEE"/>
<path d="M210.619 151.652H206.826C206.302 151.652 205.878 152.076 205.878 152.599C205.878 153.122 206.302 153.546 206.826 153.546H210.619C211.143 153.546 211.568 153.122 211.568 152.599C211.568 152.076 211.143 151.652 210.619 151.652Z" fill="#FDE5D8"/>
<path d="M210.619 162.07H206.826C206.302 162.07 205.878 162.494 205.878 163.017C205.878 163.54 206.302 163.964 206.826 163.964H210.619C211.143 163.964 211.568 163.54 211.568 163.017C211.568 162.494 211.143 162.07 210.619 162.07Z" fill="#FDE5D8"/>
<path d="M302.229 50.3162H343.387C348.603 50.3162 352.871 46.0544 352.871 40.8455V13.3806C352.871 8.17171 348.603 3.90991 343.387 3.90991H298.815C293.599 3.90991 289.332 8.17171 289.332 13.3806V53.1574C289.332 58.3663 292.366 59.7869 296.16 55.9986L302.229 50.3162Z" fill="white" stroke="#FDE5D8" stroke-width="8"/>
<path d="M328.688 17.1688H304.031C303.245 17.1688 302.609 17.8048 302.609 18.5894C302.609 19.374 303.245 20.01 304.031 20.01H328.688C329.474 20.01 330.11 19.374 330.11 18.5894C330.11 17.8048 329.474 17.1688 328.688 17.1688Z" fill="#FDB692"/>
<path d="M338.171 25.6925H304.031C303.245 25.6925 302.609 26.3285 302.609 27.1131C302.609 27.8977 303.245 28.5337 304.031 28.5337H338.171C338.957 28.5337 339.594 27.8977 339.594 27.1131C339.594 26.3285 338.957 25.6925 338.171 25.6925Z" fill="#FDB692"/>
<path d="M328.688 34.2161H304.031C303.245 34.2161 302.609 34.8521 302.609 35.6367C302.609 36.4212 303.245 37.0573 304.031 37.0573H328.688C329.474 37.0573 330.11 36.4212 330.11 35.6367C330.11 34.8521 329.474 34.2161 328.688 34.2161Z" fill="#FDB692"/>
<path d="M294.073 92.9342C301.93 92.9342 308.299 86.574 308.299 78.7282C308.299 70.8825 301.93 64.5222 294.073 64.5222C286.217 64.5222 279.848 70.8825 279.848 78.7282C279.848 86.574 286.217 92.9342 294.073 92.9342Z" fill="#FFF7F4" stroke="#FC6D26" stroke-width="3"/>
<path d="M278.9 77.7812H279.848C284.59 77.7812 288.573 75.2241 290.659 71.4358M292.177 65.4693V64.5222" stroke="#FC6D26" stroke-width="2"/>
<path d="M286.297 67.3634C289.142 71.4358 293.694 73.9929 298.815 73.9929C301.945 73.9929 304.79 73.0458 307.35 71.4358" stroke="#FC6D26" stroke-width="2"/>
<path d="M288.857 82.5165C289.643 82.5165 290.28 81.8805 290.28 81.0959C290.28 80.3113 289.643 79.6753 288.857 79.6753C288.072 79.6753 287.435 80.3113 287.435 81.0959C287.435 81.8805 288.072 82.5165 288.857 82.5165Z" fill="#FC6D26"/>
<path d="M299.289 82.5165C300.075 82.5165 300.712 81.8805 300.712 81.0959C300.712 80.3113 300.075 79.6753 299.289 79.6753C298.504 79.6753 297.867 80.3113 297.867 81.0959C297.867 81.8805 298.504 82.5165 299.289 82.5165Z" fill="#FC6D26"/>
<path d="M83.5415 174.382C91.3979 174.382 97.7667 168.022 97.7667 160.176C97.7667 152.33 91.3979 145.97 83.5415 145.97C75.6852 145.97 69.3164 152.33 69.3164 160.176C69.3164 168.022 75.6852 174.382 83.5415 174.382Z" fill="#F4F1FA" stroke="#6B4FBB" stroke-width="3"/>
<path fill-rule="evenodd" clip-rule="evenodd" d="M93.0249 151.652H95.5854C93.0249 147.675 88.6625 145.023 83.5415 145.023C78.4205 145.023 74.0581 147.675 71.4976 151.652H74.0581L76.4289 148.811L78.7998 151.652L81.1706 148.811L83.5415 151.652L85.9124 148.811L88.2832 151.652L90.6541 148.811L93.0249 151.652Z" fill="#6B4FBB"/>
<path d="M78.3257 163.017C79.1113 163.017 79.7482 162.381 79.7482 161.597C79.7482 160.812 79.1113 160.176 78.3257 160.176C77.5401 160.176 76.9032 160.812 76.9032 161.597C76.9032 162.381 77.5401 163.017 78.3257 163.017Z" fill="#6B4FBB"/>
<path d="M88.7575 163.017C89.5431 163.017 90.18 162.381 90.18 161.597C90.18 160.812 89.5431 160.176 88.7575 160.176C87.9718 160.176 87.335 160.812 87.335 161.597C87.335 162.381 87.9718 163.017 88.7575 163.017Z" fill="#6B4FBB"/>
<path d="M70.6441 130.817H29.486C24.2701 130.817 20.0026 126.555 20.0026 121.346V93.8813C20.0026 88.6724 24.2701 84.4106 29.486 84.4106H74.0581C79.274 84.4106 83.5415 88.6724 83.5415 93.8813V133.658C83.5415 138.867 80.5068 140.288 76.7134 136.499L70.6441 130.817Z" fill="white" stroke="#E2DCF2" stroke-width="8"/>
<path opacity="0.5" d="M34.7018 97.6696H59.3587C60.1444 97.6696 60.7812 98.3056 60.7812 99.0902C60.7812 99.8747 60.1444 100.511 59.3587 100.511H34.7018C33.9162 100.511 33.2793 99.8747 33.2793 99.0902C33.2793 98.3056 33.9162 97.6696 34.7018 97.6696Z" fill="#6B4FBB"/>
<path opacity="0.5" d="M34.7019 106.193H49.8753C50.661 106.193 51.2979 106.829 51.2979 107.614C51.2979 108.398 50.661 109.034 49.8753 109.034H34.7019C33.9162 109.034 33.2794 108.398 33.2794 107.614C33.2794 106.829 33.9162 106.193 34.7019 106.193Z" fill="#6B4FBB"/>
<path opacity="0.5" d="M34.7019 114.717H49.8753C50.661 114.717 51.2979 115.353 51.2979 116.137C51.2979 116.922 50.661 117.558 49.8753 117.558H34.7019C33.9162 117.558 33.2794 116.922 33.2794 116.137C33.2794 115.353 33.9162 114.717 34.7019 114.717Z" fill="#6B4FBB"/>
</g>
<defs>
<clipPath id="clip0_977_14730">
<rect width="385.126" height="217" fill="white"/>
</clipPath>
</defs>
</svg>
