<svg width="579" height="346" viewBox="0 0 579 346" fill="none" xmlns="http://www.w3.org/2000/svg">
<path fill-rule="evenodd" clip-rule="evenodd" d="M309.85 83.8941C309.769 84.6978 309.67 85.6241 309.55 86.6594C309.176 89.8781 308.738 93.089 308.235 96.2902C308.187 96.558 308.193 96.8328 308.252 97.0983C308.312 97.3639 308.424 97.6149 308.582 97.8366C308.74 98.0582 308.94 98.2462 309.172 98.3893C309.403 98.5325 309.661 98.6279 309.93 98.6701C310.199 98.7123 310.473 98.7004 310.737 98.635C311.002 98.5697 311.25 98.4522 311.468 98.2895C311.686 98.1268 311.87 97.9222 312.008 97.6876C312.146 97.4531 312.236 97.1933 312.272 96.9236C312.817 93.4459 313.261 90.1466 313.61 87.1293C313.758 85.8448 313.893 84.5589 314.014 83.2716C314.038 83.0042 314.008 82.7349 313.927 82.479C313.846 82.2231 313.716 81.9856 313.543 81.7802C313.371 81.5747 313.159 81.4052 312.921 81.2814C312.683 81.1576 312.423 81.0819 312.155 81.0587C311.888 81.0354 311.619 81.065 311.363 81.1459C311.107 81.2267 310.869 81.3571 310.664 81.5297C310.458 81.7023 310.289 81.9137 310.165 82.1518C310.041 82.3899 309.965 82.65 309.942 82.9174C309.929 83.0849 309.897 83.4146 309.85 83.8941ZM302.271 122.518C302.188 122.773 302.156 123.042 302.177 123.31C302.197 123.577 302.271 123.838 302.393 124.077C302.514 124.317 302.682 124.529 302.886 124.704C303.09 124.878 303.326 125.011 303.581 125.094C303.837 125.177 304.106 125.209 304.373 125.188C304.641 125.167 304.902 125.094 305.141 124.972C305.38 124.851 305.593 124.683 305.767 124.479C305.942 124.275 306.074 124.039 306.158 123.784C307.486 119.701 308.677 115.225 309.738 110.438C309.803 110.174 309.814 109.899 309.771 109.63C309.728 109.362 309.632 109.104 309.489 108.873C309.345 108.642 309.157 108.442 308.935 108.285C308.713 108.127 308.462 108.016 308.196 107.957C307.93 107.898 307.656 107.893 307.388 107.941C307.12 107.99 306.865 108.091 306.637 108.24C306.409 108.389 306.213 108.581 306.06 108.807C305.908 109.032 305.802 109.286 305.749 109.553C304.713 114.219 303.555 118.57 302.271 122.518ZM288.719 143.258C288.465 143.346 288.23 143.484 288.029 143.663C287.828 143.842 287.664 144.059 287.547 144.302C287.43 144.545 287.362 144.809 287.348 145.078C287.333 145.347 287.372 145.616 287.462 145.87C287.552 146.124 287.691 146.358 287.872 146.558C288.052 146.758 288.271 146.92 288.514 147.036C288.758 147.151 289.022 147.217 289.291 147.229C289.561 147.242 289.83 147.202 290.083 147.11C294.143 145.673 297.633 142.097 300.682 136.72C300.95 136.249 301.019 135.691 300.874 135.168C300.73 134.646 300.384 134.202 299.913 133.935C299.441 133.667 298.883 133.598 298.36 133.743C297.838 133.887 297.394 134.233 297.127 134.704C294.518 139.306 291.684 142.207 288.719 143.258ZM262.17 149.274C261.923 149.379 261.698 149.53 261.51 149.721C261.321 149.912 261.172 150.138 261.07 150.387C260.969 150.635 260.918 150.901 260.919 151.169C260.921 151.438 260.975 151.703 261.079 151.951C261.183 152.198 261.335 152.422 261.526 152.611C261.717 152.8 261.943 152.949 262.192 153.05C262.44 153.151 262.706 153.203 262.975 153.201C263.243 153.199 263.508 153.145 263.756 153.041C268.006 151.251 272.3 149.875 276.368 148.98C276.898 148.864 277.359 148.542 277.651 148.085C277.943 147.628 278.041 147.075 277.925 146.545C277.808 146.016 277.486 145.555 277.03 145.263C276.573 144.971 276.019 144.872 275.49 144.989C271.175 145.938 266.647 147.391 262.17 149.274ZM238.727 164.317C238.34 164.692 238.117 165.204 238.107 165.742C238.096 166.28 238.297 166.801 238.668 167.191C239.039 167.581 239.548 167.809 240.086 167.826C240.624 167.843 241.147 167.647 241.541 167.28C244.65 164.325 248.17 161.611 251.999 159.18C252.456 158.89 252.78 158.43 252.898 157.901C253.016 157.372 252.919 156.818 252.629 156.36C252.338 155.902 251.878 155.579 251.349 155.461C250.82 155.343 250.266 155.439 249.808 155.73C245.762 158.298 242.033 161.176 238.727 164.317ZM224.044 188.323C223.979 188.584 223.965 188.854 224.005 189.12C224.044 189.385 224.135 189.641 224.272 189.871C224.41 190.101 224.592 190.302 224.807 190.462C225.023 190.622 225.268 190.739 225.528 190.804C225.788 190.869 226.059 190.883 226.325 190.844C226.59 190.805 226.845 190.714 227.076 190.576C227.306 190.438 227.507 190.257 227.667 190.041C227.827 189.826 227.943 189.581 228.009 189.321C229.055 185.16 230.789 181.179 233.159 177.404C233.433 176.946 233.516 176.398 233.391 175.879C233.267 175.359 232.944 174.909 232.491 174.625C232.039 174.341 231.493 174.246 230.971 174.359C230.449 174.472 229.992 174.785 229.698 175.231C227.106 179.361 225.2 183.737 224.044 188.323ZM223.683 216.172C223.717 216.439 223.803 216.696 223.936 216.929C224.068 217.162 224.246 217.367 224.458 217.531C224.67 217.696 224.912 217.817 225.171 217.888C225.43 217.959 225.7 217.978 225.967 217.945C226.233 217.911 226.49 217.825 226.723 217.693C226.957 217.56 227.161 217.382 227.326 217.17C227.49 216.958 227.612 216.716 227.683 216.457C227.753 216.198 227.773 215.928 227.739 215.662C227.239 211.698 226.949 207.302 226.86 202.289C226.851 201.747 226.626 201.231 226.236 200.855C225.846 200.478 225.323 200.272 224.781 200.282C224.239 200.291 223.723 200.516 223.346 200.906C222.97 201.296 222.764 201.819 222.773 202.361C222.865 207.514 223.164 212.054 223.683 216.172ZM232.156 242.697C232.409 243.176 232.843 243.535 233.361 243.695C233.879 243.854 234.439 243.801 234.918 243.548C235.397 243.294 235.756 242.861 235.916 242.343C236.075 241.825 236.022 241.265 235.769 240.786C233.488 236.479 231.814 232.62 230.527 228.604C230.361 228.088 229.997 227.659 229.515 227.411C229.033 227.163 228.473 227.116 227.956 227.282C227.44 227.447 227.011 227.811 226.763 228.293C226.515 228.775 226.469 229.336 226.634 229.852C228.001 234.111 229.77 238.188 232.156 242.697ZM242.463 260.093C243.712 262.119 244.952 264.151 246.183 266.188C246.463 266.652 246.916 266.986 247.442 267.116C247.969 267.246 248.525 267.162 248.989 266.882C249.453 266.602 249.787 266.149 249.917 265.622C250.047 265.096 249.963 264.54 249.683 264.076C248.445 262.029 247.199 259.988 245.944 257.953C246.053 258.13 243.282 253.63 242.557 252.449C242.419 252.217 242.236 252.015 242.018 251.854C241.801 251.693 241.554 251.577 241.292 251.513C241.029 251.448 240.756 251.436 240.489 251.478C240.222 251.519 239.966 251.613 239.736 251.754C239.505 251.896 239.305 252.081 239.147 252.3C238.988 252.519 238.875 252.768 238.813 253.031C238.752 253.294 238.743 253.567 238.787 253.833C238.832 254.1 238.929 254.355 239.073 254.584C239.8 255.769 242.575 260.275 242.463 260.094V260.093ZM254.528 290.67C254.532 290.938 254.588 291.203 254.694 291.45C254.8 291.696 254.954 291.92 255.146 292.107C255.338 292.294 255.565 292.442 255.815 292.541C256.064 292.641 256.33 292.69 256.599 292.687C256.867 292.683 257.132 292.627 257.379 292.521C257.625 292.415 257.848 292.262 258.036 292.069C258.223 291.877 258.371 291.65 258.47 291.401C258.57 291.152 258.619 290.885 258.616 290.617C258.555 285.823 257.71 281.071 256.113 276.551C255.924 276.051 255.547 275.646 255.062 275.421C254.578 275.196 254.025 275.169 253.521 275.347C253.017 275.525 252.603 275.893 252.368 276.372C252.132 276.852 252.093 277.404 252.26 277.912C253.708 282.012 254.475 286.322 254.528 290.67ZM247.059 315.228C246.77 315.679 246.669 316.225 246.779 316.75C246.889 317.274 247.201 317.734 247.647 318.031C248.093 318.328 248.638 318.438 249.164 318.337C249.69 318.236 250.156 317.933 250.46 317.492C253.107 313.534 255.167 309.213 256.575 304.665C256.734 304.147 256.681 303.587 256.427 303.108C256.174 302.629 255.74 302.27 255.222 302.111C254.704 301.952 254.144 302.005 253.665 302.258C253.185 302.512 252.827 302.946 252.668 303.464C251.376 307.635 249.487 311.598 247.059 315.228Z" fill="#FDE5D8"/>
<path d="M358.797 233.555L427.738 209.486M438.637 228.362L383.32 276.025" stroke="#FDE5D8" stroke-width="3" stroke-linecap="round"/>
<path d="M434.444 219.772C435.421 219.208 435.756 217.958 435.192 216.981C434.628 216.003 433.378 215.668 432.4 216.233L390.221 240.582C389.244 241.146 388.909 242.396 389.473 243.373C390.038 244.35 391.288 244.685 392.265 244.121L434.444 219.772Z" fill="#FDE5D8"/>
<path d="M455.921 223.103L441.616 198.329C440.863 197.026 439.197 196.579 437.894 197.332L432.063 200.697C430.76 201.45 430.314 203.116 431.066 204.419L445.371 229.193C446.124 230.496 447.79 230.943 449.093 230.19L454.924 226.824C456.227 226.072 456.673 224.406 455.921 223.103Z" fill="white" stroke="#FDE5D8" stroke-width="6"/>
<path d="M503.286 145.425L532.578 196.153L459.898 238.11L430.606 187.381L503.286 145.425Z" stroke="#FDE5D8" stroke-width="6"/>
<path d="M494.874 214.772L492.816 236.703C492.745 237.45 492.216 238.427 491.617 238.897L464.718 260.049C463.544 260.973 463.063 260.606 463.644 259.234L470.527 242.984L472.601 227.629" stroke="#FDE5D8" stroke-width="6"/>
<path d="M468.309 168.764L448.286 159.581C447.601 159.269 446.491 159.239 445.784 159.522L414.015 172.238C412.628 172.793 412.705 173.392 414.183 173.575L431.7 175.742L446.037 181.623" stroke="#FDE5D8" stroke-width="6"/>
<path d="M503.287 145.424L550.207 149.461C552.453 149.654 553.501 151.46 552.542 153.505L532.58 196.151" stroke="#FDE5D8" stroke-width="6"/>
<path d="M447.328 197.391C447.892 198.368 449.137 198.706 450.108 198.146C451.078 197.585 451.408 196.339 450.844 195.361C450.279 194.384 449.035 194.046 448.064 194.607C447.093 195.167 446.764 196.414 447.328 197.391Z" fill="#FC8A51"/>
<path d="M451.415 204.469C451.979 205.447 453.224 205.784 454.195 205.224C455.165 204.664 455.495 203.417 454.931 202.44C454.366 201.462 453.122 201.124 452.151 201.685C451.18 202.245 450.851 203.492 451.415 204.469Z" fill="#FC8A51"/>
<path d="M455.502 211.547C456.066 212.525 457.311 212.863 458.282 212.302C459.253 211.742 459.582 210.495 459.018 209.518C458.454 208.541 457.209 208.203 456.238 208.763C455.267 209.324 454.938 210.57 455.502 211.547Z" fill="#FC8A51"/>
<path d="M459.589 218.626C460.153 219.603 461.398 219.941 462.369 219.38C463.34 218.82 463.669 217.573 463.105 216.596C462.541 215.619 461.296 215.281 460.325 215.841C459.354 216.402 459.025 217.648 459.589 218.626Z" fill="#FC8A51"/>
<path d="M475.73 195.151C479.681 201.992 488.394 204.357 495.192 200.432C501.99 196.508 504.299 187.781 500.348 180.94C496.398 174.098 487.685 171.734 480.887 175.658C474.089 179.582 471.78 188.31 475.73 195.151Z" stroke="#FDE5D8" stroke-width="3"/>
<path d="M481.592 191.767C483.661 195.351 488.225 196.589 491.786 194.534C495.347 192.478 496.556 187.907 494.487 184.323C492.418 180.74 487.854 179.501 484.293 181.557C480.732 183.612 479.522 188.184 481.592 191.767Z" stroke="#FDE5D8" stroke-width="3"/>
<path fill-rule="evenodd" clip-rule="evenodd" d="M133.569 53.412C133.362 55.7114 133.68 58.6102 134.928 61.7855C135.073 62.1102 135.337 62.3664 135.667 62.5011C135.996 62.6359 136.364 62.6387 136.696 62.509C137.027 62.3793 137.295 62.1271 137.446 61.8047C137.596 61.4823 137.616 61.1145 137.502 60.7775C136.425 58.034 136.154 55.5575 136.324 53.6586C136.338 53.5033 136.351 53.4052 136.357 53.3712C136.391 53.1902 136.389 53.0043 136.35 52.8243C136.311 52.6442 136.237 52.4737 136.132 52.3227C136.026 52.1717 135.892 52.0433 135.736 51.9451C135.58 51.8468 135.406 51.7806 135.225 51.7504C135.043 51.7202 134.857 51.7265 134.678 51.7691C134.499 51.8117 134.33 51.8896 134.181 51.9984C134.033 52.1071 133.907 52.2444 133.813 52.4023C133.718 52.5601 133.655 52.7353 133.629 52.9176C133.603 53.0816 133.583 53.2465 133.569 53.412ZM149.219 74.7755C149.888 75.1024 150.714 74.8613 151.065 74.2388C151.415 73.6176 151.157 72.8493 150.487 72.5224C147.945 71.2869 145.776 69.9151 143.956 68.4263C143.677 68.2029 143.325 68.091 142.968 68.1124C142.612 68.1338 142.276 68.2869 142.025 68.5421C141.907 68.6639 141.816 68.8092 141.758 68.9685C141.7 69.1278 141.676 69.2975 141.688 69.4667C141.699 69.6358 141.747 69.8007 141.826 69.9504C141.906 70.1002 142.016 70.2316 142.149 70.3361C144.136 71.9598 146.486 73.446 149.22 74.7769L149.219 74.7755ZM167.108 83.0305C167.286 83.0849 167.473 83.1034 167.659 83.0849C167.844 83.0663 168.024 83.0111 168.188 82.9223C168.352 82.8336 168.497 82.7132 168.613 82.568C168.73 82.4229 168.817 82.2559 168.869 82.0769C168.981 81.7145 168.945 81.3228 168.77 80.9864C168.595 80.65 168.295 80.3958 167.935 80.2788C165.241 79.4464 162.555 78.5918 159.876 77.7151C159.699 77.6579 159.512 77.6365 159.326 77.6523C159.14 77.6681 158.96 77.7207 158.794 77.807C158.629 77.8933 158.483 78.0117 158.364 78.1552C158.245 78.2987 158.155 78.4645 158.101 78.6428C157.984 79.0038 158.014 79.3962 158.185 79.7352C158.355 80.0743 158.652 80.3326 159.011 80.4545C161.367 81.2296 162.969 81.735 167.108 83.0305ZM183.366 88.3812C183.979 88.7163 184.758 88.5147 185.11 87.9317C185.193 87.7927 185.247 87.6382 185.268 87.4777C185.289 87.3172 185.277 87.1541 185.233 86.9983C185.189 86.8426 185.113 86.6975 185.011 86.5719C184.909 86.4464 184.782 86.3431 184.638 86.2684C182.603 85.1528 180.29 84.1638 177.463 83.1694C176.801 82.9378 176.066 83.2607 175.823 83.8914C175.577 84.5234 175.918 85.2236 176.579 85.4565C179.282 86.406 181.47 87.3418 183.366 88.3812ZM196.148 102.687C196.427 103.36 197.251 103.698 197.985 103.442C198.721 103.186 199.089 102.434 198.81 101.761C197.652 98.971 196.285 96.5899 194.672 94.5343C194.213 93.9499 193.323 93.8164 192.684 94.2373C192.046 94.6569 191.901 95.4715 192.36 96.0559C193.823 97.9194 195.074 100.102 196.148 102.687ZM199.733 121.27C199.758 122.024 200.507 122.619 201.406 122.598C202.305 122.577 203.014 121.949 202.991 121.195C202.891 118.193 202.623 115.466 202.143 112.859C202.006 112.114 201.173 111.601 200.284 111.717C199.395 111.832 198.785 112.53 198.923 113.275C199.38 115.762 199.638 118.377 199.733 121.27Z" fill="#EEEEEE"/>
<path fill-rule="evenodd" clip-rule="evenodd" d="M199.097 133.128C199.007 135.513 198.942 137.899 198.904 140.285C198.894 141.039 199.443 141.658 200.132 141.669C200.822 141.68 201.39 141.079 201.399 140.328C201.427 138.329 201.476 136.675 201.593 133.229L201.628 132.184C201.653 131.432 201.115 130.8 200.427 130.773C199.737 130.746 199.158 131.332 199.132 132.085L199.097 133.128ZM200.183 159.652C200.346 160.394 201.1 160.867 201.867 160.71C202.632 160.552 203.121 159.823 202.959 159.081C202.391 156.493 201.992 153.85 201.737 151.093C201.666 150.338 200.977 149.78 200.196 149.848C199.416 149.916 198.84 150.584 198.909 151.338C199.175 154.202 199.59 156.952 200.183 159.652ZM207.071 176.44C207.474 177.058 208.369 177.271 209.069 176.914C209.77 176.558 210.009 175.768 209.608 175.15C208.183 172.975 206.913 170.703 205.807 168.351C205.497 167.69 204.642 167.377 203.895 167.649C203.149 167.922 202.792 168.678 203.102 169.337C204.257 171.795 205.583 174.168 207.071 176.44ZM213.629 186.93C215.116 188.651 216.729 190.259 218.456 191.74C218.725 191.968 219.07 192.086 219.423 192.069C219.775 192.053 220.108 191.903 220.354 191.65C220.472 191.528 220.563 191.383 220.622 191.224C220.682 191.065 220.708 190.895 220.699 190.726C220.69 190.557 220.646 190.391 220.57 190.239C220.495 190.087 220.388 189.953 220.258 189.844C218.631 188.448 217.11 186.933 215.708 185.31C215.444 185.003 215.183 184.693 214.923 184.381C214.694 184.114 214.371 183.943 214.02 183.905C213.67 183.866 213.317 183.963 213.035 184.174C212.898 184.274 212.783 184.401 212.697 184.548C212.611 184.695 212.556 184.857 212.535 185.026C212.515 185.194 212.529 185.366 212.578 185.528C212.626 185.691 212.708 185.842 212.817 185.972C213.084 186.291 213.354 186.611 213.629 186.93ZM235.188 202.836C235.842 203.166 236.622 202.86 236.927 202.154C237.232 201.446 236.949 200.606 236.295 200.277C233.957 199.105 231.689 197.799 229.502 196.365C228.885 195.959 228.08 196.168 227.704 196.834C227.328 197.499 227.523 198.368 228.14 198.774C230.409 200.263 232.762 201.62 235.188 202.836Z" fill="#E5E5E5"/>
<path fill-rule="evenodd" clip-rule="evenodd" d="M254.396 209.739C255.15 209.931 255.906 209.431 256.084 208.622C256.263 207.811 255.798 206.998 255.045 206.806C252.35 206.119 249.685 205.317 247.057 204.404C246.322 204.148 245.531 204.581 245.292 205.374C245.053 206.166 245.457 207.016 246.194 207.272C248.892 208.209 251.628 209.032 254.396 209.737V209.739ZM272.379 212.501C273.134 212.556 273.783 211.895 273.83 211.026C273.878 210.155 273.304 209.408 272.551 209.353C269.851 209.158 267.16 208.851 264.486 208.432C263.737 208.315 263.049 208.92 262.946 209.782C262.846 210.646 263.369 211.44 264.118 211.557C266.858 211.986 269.615 212.301 272.381 212.501H272.379ZM291.708 210.605C292.458 210.53 292.989 209.982 292.895 209.379C292.802 208.778 292.12 208.351 291.372 208.426C288.76 208.687 286.068 208.861 283.32 208.946C282.566 208.969 281.979 209.48 282.008 210.086C282.037 210.692 282.672 211.165 283.425 211.14C286.192 211.057 288.954 210.878 291.708 210.605ZM311.115 206.986C311.837 206.686 312.172 205.874 311.864 205.171C311.71 204.831 311.429 204.565 311.081 204.429C310.733 204.293 310.346 204.298 310.002 204.442C307.442 205.495 304.812 206.37 302.132 207.062C301.954 207.106 301.786 207.185 301.639 207.294C301.492 207.403 301.368 207.541 301.275 207.698C301.182 207.856 301.121 208.03 301.096 208.212C301.071 208.393 301.082 208.578 301.129 208.755C301.333 209.493 302.111 209.931 302.869 209.732C305.678 209.006 308.433 208.089 311.117 206.986H311.115ZM326.759 194.001C327.157 193.409 326.961 192.631 326.323 192.262C325.683 191.894 324.842 192.074 324.444 192.666C323.141 194.606 321.413 196.39 319.289 198.006C319.153 198.105 319.038 198.231 318.954 198.377C318.869 198.523 318.816 198.685 318.798 198.852C318.781 199.02 318.798 199.189 318.851 199.35C318.903 199.51 318.988 199.657 319.101 199.782C319.578 200.322 320.436 200.399 321.019 199.957C323.367 198.172 325.292 196.182 326.759 194.001ZM337.418 180.747C337.679 180.517 337.838 180.194 337.861 179.847C337.884 179.501 337.769 179.159 337.541 178.897C337.428 178.767 337.29 178.661 337.136 178.585C336.982 178.509 336.815 178.464 336.643 178.452C336.472 178.441 336.3 178.463 336.137 178.519C335.974 178.574 335.824 178.661 335.695 178.774C333.679 180.538 331.781 182.433 330.014 184.445C329.785 184.707 329.669 185.049 329.692 185.396C329.715 185.743 329.874 186.067 330.135 186.296C330.264 186.41 330.414 186.497 330.576 186.552C330.739 186.608 330.911 186.631 331.082 186.619C331.254 186.608 331.421 186.563 331.575 186.487C331.729 186.411 331.867 186.305 331.98 186.175C333.671 184.249 335.488 182.436 337.417 180.747H337.418ZM353.505 170.099C354.153 169.748 354.4 168.93 354.056 168.27C353.977 168.114 353.867 167.976 353.733 167.863C353.599 167.75 353.443 167.664 353.276 167.612C353.109 167.56 352.933 167.542 352.758 167.558C352.583 167.575 352.414 167.626 352.26 167.709C349.872 168.994 347.544 170.384 345.28 171.876C344.666 172.282 344.49 173.12 344.889 173.746C345.29 174.373 346.113 174.55 346.728 174.144C348.926 172.696 351.187 171.346 353.505 170.099ZM370.936 161.996C371.685 161.766 372.095 161.01 371.852 160.306C371.608 159.6 370.803 159.216 370.053 159.445C367.309 160.284 364.594 161.217 361.913 162.243C361.183 162.522 360.831 163.305 361.128 163.99C361.425 164.677 362.259 165.007 362.989 164.727C365.606 163.727 368.257 162.816 370.936 161.996Z" fill="#EEEEEE"/>
<path d="M200.266 132.134C204.028 132.134 207.078 129.084 207.078 125.323C207.078 121.561 204.028 118.512 200.266 118.512C196.504 118.512 193.454 121.561 193.454 125.323C193.454 129.084 196.504 132.134 200.266 132.134Z" fill="white" stroke="#EEEEEE" stroke-width="2"/>
<path d="M326.965 197.52C330.727 197.52 333.776 194.47 333.776 190.709C333.776 186.947 330.727 183.898 326.965 183.898C323.203 183.898 320.153 186.947 320.153 190.709C320.153 194.47 323.203 197.52 326.965 197.52Z" fill="white" stroke="#EEEEEE" stroke-width="2"/>
<path d="M30.0536 79.0079C30.0536 79.0079 6.25325 123.961 13.7053 151.205C21.1574 178.449 36.8653 194.795 65.4747 211.142C94.0841 227.488 109.669 204.331 148.497 219.315C187.324 234.299 188.005 277.89 188.005 277.89" stroke="#B5A7DD" stroke-width="3" stroke-linecap="round" stroke-dasharray="8 10"/>
<path fill-rule="evenodd" clip-rule="evenodd" d="M359.661 343.276C359.661 285.346 312.695 238.386 254.76 238.386C196.825 238.386 149.859 285.346 149.859 343.276" fill="white"/>
<path d="M359.661 343.276C359.661 285.346 312.695 238.386 254.76 238.386C196.825 238.386 149.859 285.346 149.859 343.276" stroke="#EEEEEE" stroke-width="3" stroke-linecap="round"/>
<path d="M296.993 316.032C309.031 316.032 318.791 306.273 318.791 294.236C318.791 282.199 309.031 272.441 296.993 272.441C284.954 272.441 275.195 282.199 275.195 294.236C275.195 306.273 284.954 316.032 296.993 316.032Z" stroke="#EEEEEE" stroke-width="3"/>
<path d="M207.759 291.512C214.154 291.512 219.339 286.328 219.339 279.933C219.339 273.538 214.154 268.354 207.759 268.354C201.363 268.354 196.179 273.538 196.179 279.933C196.179 286.328 201.363 291.512 207.759 291.512Z" stroke="#EEEEEE" stroke-width="3"/>
<path d="M179.831 324.205C183.593 324.205 186.642 321.155 186.642 317.394C186.642 313.632 183.593 310.583 179.831 310.583C176.069 310.583 173.019 313.632 173.019 317.394C173.019 321.155 176.069 324.205 179.831 324.205Z" stroke="#EEEEEE" stroke-width="3"/>
<path fill-rule="evenodd" clip-rule="evenodd" d="M329.478 24.7461L332.62 25.588C334.113 20.0169 339.778 16.6943 345.272 18.1662L346.126 14.9793C338.898 13.0428 331.444 17.4161 329.479 24.7465L329.478 24.7461Z" fill="#FC8A51"/>
<path d="M345.654 18.8387C347.101 19.2261 348.592 18.3514 348.985 16.8849C349.378 15.4184 348.524 13.9155 347.078 13.528C345.631 13.1406 344.14 14.0153 343.747 15.4818C343.354 16.9483 344.208 18.4512 345.654 18.8387Z" fill="#FC8A51"/>
<path fill-rule="evenodd" clip-rule="evenodd" d="M327.383 24.1847L324.241 23.3428C325.734 17.7717 322.49 12.0624 316.996 10.5906L317.85 7.40368C325.078 9.34018 329.346 16.8539 327.382 24.1843L327.383 24.1847Z" fill="#FC8A51"/>
<path d="M316.328 10.9815C314.882 10.594 314.028 9.09111 314.421 7.62462C314.814 6.15813 316.305 5.2834 317.751 5.67085C319.197 6.05831 320.051 7.56123 319.658 9.02772C319.265 10.4942 317.774 11.3689 316.328 10.9815Z" fill="#FC8A51"/>
<path d="M344.899 56.1913L337.057 54.0905C336.33 53.8958 335.583 54.3271 335.389 55.0538C335.194 55.7806 335.625 56.5276 336.352 56.7223L344.193 58.8231C344.92 59.0178 345.667 58.5865 345.862 57.8597C346.057 57.133 345.625 56.386 344.899 56.1913Z" fill="#FC8A51"/>
<path d="M342.261 66.8627L335.23 62.8041C334.579 62.428 333.745 62.6512 333.369 63.3028C332.993 63.9544 333.216 64.7875 333.868 65.1637L340.898 69.2222C341.55 69.5984 342.383 69.3751 342.759 68.7236C343.136 68.072 342.912 67.2389 342.261 66.8627Z" fill="#FC8A51"/>
<path d="M347.334 45.8341L339.216 45.8344C338.463 45.8344 337.853 46.4442 337.853 47.1965C337.853 47.9487 338.463 48.5585 339.216 48.5584L347.334 48.5582C348.086 48.5582 348.696 47.9483 348.696 47.1961C348.696 46.4439 348.086 45.8341 347.334 45.8341Z" fill="#FC8A51"/>
<path d="M298.304 43.7078L306.146 45.8086C306.873 46.0033 307.304 46.7503 307.109 47.477C306.914 48.2038 306.167 48.6351 305.44 48.4404L297.599 46.3396C296.872 46.1449 296.441 45.3979 296.636 44.6712C296.83 43.9444 297.577 43.5131 298.304 43.7078Z" fill="#FC8A51"/>
<path d="M295.252 54.2686L303.37 54.2683C304.123 54.2683 304.733 54.8781 304.733 55.6303C304.733 56.3825 304.123 56.9924 303.37 56.9924L295.252 56.9927C294.5 56.9927 293.89 56.3829 293.89 55.6307C293.89 54.8785 294.5 54.2686 295.252 54.2686Z" fill="#FC8A51"/>
<path d="M301.374 33.5206L308.405 37.5792C309.057 37.9554 309.28 38.7885 308.904 39.4401C308.527 40.0916 307.694 40.3149 307.043 39.9387L300.012 35.8802C299.36 35.504 299.137 34.6709 299.513 34.0193C299.89 33.3677 300.723 33.1445 301.374 33.5206Z" fill="#FC8A51"/>
<path d="M341.365 45.3133C343.923 35.7695 338.259 25.96 328.715 23.4031C319.171 20.8462 309.36 26.5101 306.803 36.0539L303.543 48.2159C300.986 57.7597 306.649 67.5692 316.193 70.1261C325.737 72.683 335.548 67.0191 338.106 57.4753L341.365 45.3133Z" stroke="#FC8A51" stroke-width="6"/>
<path fill-rule="evenodd" clip-rule="evenodd" d="M307.928 36.0435L339.349 44.4618L338.292 48.4094L306.87 39.9911L307.928 36.0435Z" fill="#FC8A51"/>
<path fill-rule="evenodd" clip-rule="evenodd" d="M125.915 18.0462L123.902 18.5856C123.677 17.7493 123.289 16.9656 122.761 16.2792C122.233 15.5928 121.574 15.0172 120.824 14.5852C120.073 14.1533 119.245 13.8734 118.386 13.7617C117.527 13.65 116.654 13.7085 115.818 13.9341L115.28 11.9261C119.916 10.6841 124.677 13.4251 125.915 18.0462Z" fill="#EEEEEE"/>
<path d="M115.572 14.3596C114.645 14.6081 113.692 14.0601 113.445 13.1358C113.197 12.2114 113.748 11.2606 114.675 11.0122C115.603 10.7638 116.555 11.3117 116.803 12.2361C117.051 13.1604 116.5 14.1112 115.572 14.3596Z" fill="#EEEEEE"/>
<path fill-rule="evenodd" clip-rule="evenodd" d="M127.258 17.686L129.272 17.1466C129.048 16.3098 128.992 15.4372 129.107 14.5787C129.221 13.7202 129.503 12.8927 129.937 12.1433C130.371 11.3939 130.949 10.7374 131.637 10.2112C132.325 9.68509 133.109 9.29963 133.946 9.07689L133.408 7.06895C128.772 8.31095 126.02 13.0649 127.258 17.686Z" fill="#EEEEEE"/>
<path d="M134.372 9.32249C135.299 9.07405 135.85 8.1233 135.603 7.19893C135.355 6.27457 134.402 5.72662 133.475 5.97506C132.548 6.2235 131.997 7.17424 132.244 8.09861C132.492 9.02298 133.445 9.57093 134.372 9.32249Z" fill="#EEEEEE"/>
<path d="M116.43 37.8064L120.512 36.7128C121.238 36.5181 121.985 36.9494 122.18 37.6761C122.375 38.4029 121.944 39.1498 121.217 39.3445L117.135 40.4381C116.408 40.6328 115.661 40.2015 115.466 39.4748C115.272 38.748 115.703 38.0011 116.43 37.8064Z" fill="#EEEEEE"/>
<path d="M117.927 44.477L121.587 42.3643C122.238 41.9882 123.071 42.2114 123.448 42.863C123.824 43.5146 123.601 44.3477 122.949 44.7238L119.289 46.8366C118.638 47.2127 117.804 46.9894 117.428 46.3379C117.052 45.6863 117.275 44.8532 117.927 44.477Z" fill="#EEEEEE"/>
<path d="M115.038 31.3759L119.264 31.3761C120.016 31.3761 120.626 31.9859 120.626 32.7382C120.626 33.4904 120.016 34.1003 119.264 34.1002L115.038 34.1001C114.286 34.1001 113.676 33.4902 113.676 32.738C113.675 31.9857 114.285 31.3759 115.038 31.3759Z" fill="#EEEEEE"/>
<path d="M145.354 30.0571L141.272 31.1506C140.545 31.3453 140.114 32.0923 140.309 32.819C140.503 33.5458 141.25 33.9771 141.977 33.7824L146.059 32.6888C146.786 32.4941 147.217 31.7471 147.022 31.0204C146.828 30.2937 146.081 29.8624 145.354 30.0571Z" fill="#EEEEEE"/>
<path d="M147.393 36.5827L143.167 36.5825C142.415 36.5825 141.805 37.1923 141.805 37.9446C141.805 38.6969 142.415 39.3067 143.167 39.3067L147.393 39.3069C148.145 39.3069 148.755 38.6971 148.755 37.9448C148.755 37.1926 148.145 36.5827 147.393 36.5827Z" fill="#EEEEEE"/>
<path d="M143.344 23.7921L139.684 25.9048C139.032 26.281 138.809 27.1141 139.185 27.7657C139.561 28.4172 140.395 28.6405 141.046 28.2643L144.706 26.1516C145.358 25.7755 145.581 24.9424 145.205 24.2908C144.828 23.6392 143.995 23.416 143.344 23.7921Z" fill="#EEEEEE"/>
<path d="M126.405 17.1964L126.407 17.196C132.525 15.557 138.813 19.1875 140.452 25.3049L142.41 32.6076C144.049 38.725 140.418 45.0128 134.301 46.6517L134.299 46.6521C128.182 48.2911 121.893 44.6606 120.254 38.5433L118.297 31.2405C116.657 25.1232 120.288 18.8354 126.405 17.1964Z" stroke="#EEEEEE" stroke-width="4"/>
<path fill-rule="evenodd" clip-rule="evenodd" d="M139.684 25.1187L119.542 30.5149L120.247 33.1466L140.389 27.7505L139.684 25.1187Z" fill="#EEEEEE"/>
<path d="M14.3047 166.189C20.7002 166.189 25.8847 161.005 25.8847 154.61C25.8847 148.215 20.7002 143.031 14.3047 143.031C7.90927 143.031 2.72473 148.215 2.72473 154.61C2.72473 161.005 7.90927 166.189 14.3047 166.189Z" fill="white" stroke="#B5A7DD" stroke-width="4"/>
<path d="M236.368 179.811C241.259 179.811 245.224 175.847 245.224 170.957C245.224 166.067 241.259 162.102 236.368 162.102C231.478 162.102 227.513 166.067 227.513 170.957C227.513 175.847 231.478 179.811 236.368 179.811Z" fill="white"/>
<path d="M72.8859 230.213C82.2909 230.213 89.9153 222.589 89.9153 213.185C89.9153 203.781 82.2909 196.158 72.8859 196.158C63.4808 196.158 55.8564 203.781 55.8564 213.185C55.8564 222.589 63.4808 230.213 72.8859 230.213Z" fill="white" stroke="#6B4FBB" stroke-width="4"/>
<path fill-rule="evenodd" clip-rule="evenodd" d="M70.4772 214.513L68.0713 212.106C67.6879 211.723 67.168 211.508 66.6258 211.508C66.0837 211.508 65.5638 211.723 65.1804 212.106C64.797 212.49 64.5817 213.009 64.5817 213.551C64.5817 214.094 64.797 214.613 65.1804 214.997L69.0304 218.846H69.0318V218.848C69.8356 219.651 71.123 219.647 71.9186 218.852L80.5968 210.175C80.9768 209.79 81.1895 209.272 81.1888 208.731C81.188 208.191 80.9738 207.673 80.5927 207.289C80.4039 207.099 80.1794 206.948 79.932 206.844C79.6846 206.741 79.4192 206.688 79.1511 206.687C78.883 206.687 78.6174 206.739 78.3696 206.841C78.1218 206.944 77.8967 207.094 77.7072 207.284L70.4772 214.513Z" fill="#FC8A51"/>
<path d="M236.368 178.449C241.259 178.449 245.224 174.485 245.224 169.594C245.224 164.704 241.259 160.74 236.368 160.74C231.478 160.74 227.513 164.704 227.513 169.594C227.513 174.485 231.478 178.449 236.368 178.449Z" fill="white" stroke="#FC8A51" stroke-width="3"/>
<path d="M32.6965 81.7323C37.2109 81.7323 40.8706 78.073 40.8706 73.559C40.8706 69.0451 37.2109 65.3858 32.6965 65.3858C28.182 65.3858 24.5223 69.0451 24.5223 73.559C24.5223 78.073 28.182 81.7323 32.6965 81.7323Z" fill="white" stroke="#B5A7DD" stroke-width="3"/>
<path fill-rule="evenodd" clip-rule="evenodd" d="M259.053 195.607C270.911 185.056 274.056 167.103 265.677 152.591C256.113 136.027 235.153 130.221 218.863 139.626C202.572 149.031 197.12 170.082 206.685 186.647C215.181 201.358 232.663 207.584 247.88 202.203L262.728 227.92C263.588 229.411 265.006 230.5 266.668 230.947C268.331 231.393 270.103 231.161 271.595 230.301C273.084 229.439 274.17 228.02 274.615 226.358C275.059 224.695 274.826 222.924 273.965 221.433L259.053 195.607ZM247.563 189.329C258.267 183.15 261.85 169.315 255.564 158.43C249.279 147.544 235.506 143.73 224.802 149.909C214.096 156.09 210.514 169.924 216.798 180.81C223.084 191.694 236.857 195.509 247.563 189.329Z" fill="white" stroke="#B5A7DD" stroke-width="3.6"/>
</svg>
