<svg width="168" height="168" viewBox="0 0 168 168" fill="none" xmlns="http://www.w3.org/2000/svg">
<g clip-path="url(#clip0_736_14734)">
<rect width="168" height="168" fill="white"/>
<path d="M113.244 117.299H52.9777C47.912 117.299 43.7908 113.169 43.7908 108.092V47.6905C43.7908 42.6134 47.912 38.483 52.9777 38.483H113.244C118.31 38.483 122.431 42.6134 122.431 47.6905V108.092C122.431 113.169 118.31 117.299 113.244 117.299ZM52.9777 39.9562C48.7157 39.9562 45.2607 43.4189 45.2607 47.6905V108.092C45.2607 112.363 48.7157 115.826 52.9777 115.826H95.1926C109.424 115.826 120.961 104.263 120.961 90.0001V47.6905C120.961 43.419 117.506 39.9562 113.244 39.9562H52.9777V39.9562Z" fill="#F2F2F2"/>
<path d="M59.475 46.2373C56.6226 46.2373 54.3022 48.5629 54.3022 51.4216V59.5362C54.3022 62.395 56.6226 64.7206 59.475 64.7206H67.5715C70.4238 64.7206 72.7442 62.395 72.7442 59.5362V51.4216C72.7442 48.5629 70.4238 46.2373 67.5715 46.2373H59.475Z" fill="#F2F2F2"/>
<path d="M59.475 69.081C56.6226 69.081 54.3022 71.4066 54.3022 74.2653V82.38C54.3022 85.2387 56.6226 87.5643 59.475 87.5643H67.5715C70.4238 87.5643 72.7442 85.2387 72.7442 82.38V74.2653C72.7442 71.4066 70.4238 69.081 67.5715 69.081H59.475Z" fill="#F2F2F2"/>
<path d="M59.475 91.9247C56.6226 91.9247 54.3022 94.2503 54.3022 97.1091V105.224C54.3022 108.082 56.6226 110.408 59.475 110.408H67.5715C70.4238 110.408 72.7442 108.082 72.7442 105.224V97.1091C72.7442 94.2503 70.4238 91.9247 67.5715 91.9247H59.475Z" fill="#F2F2F2"/>
<path d="M64.844 26.4394C61.2499 26.4394 58.3262 29.3697 58.3262 32.9718V43.1965C58.3262 46.7986 61.2499 49.7289 64.844 49.7289H75.0458C78.6398 49.7289 81.5636 46.7986 81.5636 43.1965V32.9718C81.5636 29.3697 78.6398 26.4394 75.0458 26.4394H64.844Z" fill="#6C63FF"/>
<path d="M98.4309 55.0131C94.8369 55.0131 91.9131 57.9434 91.9131 61.5455V71.7702C91.9131 75.3723 94.8369 78.3026 98.4309 78.3026H108.633C112.227 78.3026 115.151 75.3723 115.151 71.7702V61.5455C115.151 57.9434 112.227 55.0131 108.633 55.0131H98.4309Z" fill="#6C63FF"/>
<path d="M83.829 157.928L81.7566 157.911L80.8391 149.712L83.8979 149.738L83.829 157.928Z" fill="#A0616A"/>
<path d="M77.1905 161.231C77.186 161.743 77.5972 162.164 78.1091 162.168L82.2298 162.203L82.9512 160.737L83.2161 162.21L84.7709 162.224L84.3783 156.971L83.8374 156.935L81.6309 156.782L80.9191 156.734L80.9066 158.221L77.5965 160.471C77.3446 160.643 77.193 160.927 77.1905 161.231H77.1905Z" fill="#2F2E41"/>
<path d="M94.3737 157.928L92.3012 157.911L91.3838 149.712L94.4426 149.738L94.3737 157.928Z" fill="#A0616A"/>
<path d="M87.7351 161.231C87.7306 161.743 88.1419 162.164 88.6538 162.168L92.7745 162.203L93.4958 160.737L93.7608 162.21L95.3156 162.224L94.923 156.971L94.382 156.935L92.1756 156.782L91.4638 156.734L91.4513 158.221L88.1412 160.471C87.8893 160.643 87.7377 160.927 87.7351 161.231Z" fill="#2F2E41"/>
<path d="M75.6961 91.6421L84.097 91.908L92.0558 93.6806C92.0558 93.6806 91.2599 94.6555 93.9128 97.3144C93.9128 97.3144 97.45 103.518 94.974 109.545L93.9128 133.652C93.9128 133.652 97.0068 150.646 94.6429 156.055L91.5185 156.25L86.2317 133.848L83.6549 109.722L82.4169 133.475C82.4169 133.475 87.1531 149.778 84.1624 156.25L80.7785 156.055L74.9887 133.475C74.9887 133.475 72.5127 107.418 72.8664 102.455C73.2201 97.4916 75.6962 91.6421 75.6962 91.6421H75.6961Z" fill="#2F2E41"/>
<path d="M103.908 53.5493C102.76 53.8473 102.07 55.022 102.367 56.173C102.503 56.7004 102.825 57.1295 103.242 57.4129L103.242 57.4159L103.079 61.3708L106.098 62.7714L106.339 56.6854L106.318 56.686C106.58 56.2185 106.671 55.6537 106.526 55.0937C106.229 53.9427 105.057 53.2512 103.908 53.5493V53.5493Z" fill="#A0616A"/>
<path d="M87.0307 67.6643C86.3963 67.0341 86.0283 66.1797 86.0146 65.2505C85.9961 64.0041 86.6193 62.8728 87.6816 62.2244C88.905 61.4776 90.4349 61.5532 91.5792 62.4166L101.062 69.5724L102.751 59.264L106.379 60.4344L105.514 73.8573C105.453 74.7962 104.923 75.6234 104.097 76.0699C103.271 76.5164 102.29 76.5052 101.474 76.04L87.7706 68.2259C87.4953 68.0689 87.2474 67.8796 87.0307 67.6643V67.6643Z" fill="#3F3D56"/>
<path d="M72.5716 47.7833C73.1778 48.8053 72.8425 50.1263 71.8228 50.7339C71.3555 51.0122 70.8261 51.0904 70.3308 50.9973L70.3288 50.9995L67.6662 53.9231L64.5378 52.7869L68.642 48.2948L68.6564 48.3101C68.7989 47.7933 69.1314 47.3284 69.6276 47.0328C70.6473 46.4252 71.9654 46.7612 72.5716 47.7833Z" fill="#A0616A"/>
<path d="M73.7216 69.5931L58.5007 65.4723C57.5944 65.2269 56.8903 64.5431 56.6172 63.6429C56.344 62.7427 56.5491 61.7818 57.1656 61.0722L65.9803 50.9292L69.3786 52.6578L63.3371 61.1705L75.0979 62.7802C76.517 62.9745 77.6565 64.0003 78.0007 65.3939C78.2997 66.604 77.9475 67.8471 77.0588 68.7192C76.3963 69.3693 75.5348 69.7164 74.6415 69.7163C74.3364 69.7163 74.0274 69.6758 73.7216 69.5931H73.7216Z" fill="#3F3D56"/>
<path d="M95.4218 95.1887L74.1371 96.1672C73.5525 95.2775 73.7108 93.9397 74.5295 92.2644C77.6205 85.9391 75.273 73.9728 73.6938 67.7419C73.2507 65.9936 74.4401 64.2556 76.2309 64.0762L78.2378 63.875L80.0929 58.1994H86.5899L89.2853 61.2857L93.8596 64.0707C93.027 72.6663 89.4793 84.8039 94.5334 90.8908C95.6388 92.2221 95.9522 93.6617 95.4218 95.1887Z" fill="#3F3D56"/>
<path d="M82.5151 58.3305C86.0101 58.3305 88.8434 55.4909 88.8434 51.988C88.8434 48.4851 86.0101 45.6455 82.5151 45.6455C79.0201 45.6455 76.1868 48.4851 76.1868 51.988C76.1868 55.4909 79.0201 58.3305 82.5151 58.3305Z" fill="#A0616A"/>
<path d="M89.6761 47.9282C90.5566 44.7109 80.9604 41.952 79.0956 44.5429C78.8363 44.1746 77.878 43.9508 77.4384 44.0638C76.9987 44.1768 76.6289 44.4593 76.2681 44.7327C75.7721 45.1147 75.258 45.5101 74.9536 46.0593C74.6469 46.6061 74.5996 47.3519 75.0122 47.8265C75.3391 48.2039 75.9137 50.2093 76.4052 50.3088C76.7479 50.3788 77.0365 50.4353 77.2846 50.476C77.5055 50.1528 78.069 49.7469 78.0284 49.3559C78.3622 49.5774 78.2402 49.967 78.173 50.3653C77.9489 51.6913 72.9014 61.9562 75.7924 58.9314C76.0787 59.1009 76.4327 59.2591 76.8408 59.4037C77.5331 58.3574 78.1013 57.1235 78.4756 55.8331L78.4782 55.857C78.6071 56.9783 79.4248 57.8985 80.5065 58.2126C84.8461 59.4726 88.3563 57.6237 89.5638 54.2896C89.1218 53.3901 88.9292 53.4878 88.9688 53.4611C89.5206 53.0883 90.279 53.3321 90.5162 53.9552C90.5861 54.139 90.6497 54.2958 90.7047 54.4138C91.3338 52.1585 92.082 52.484 89.6761 47.9282H89.6761Z" fill="#2F2E41"/>
<path d="M86.6824 45.5939L86.2391 43.3227C86.2019 43.1318 86.1665 42.9246 86.2524 42.7501C86.3628 42.526 86.6465 42.4331 86.8933 42.4688C87.1402 42.5045 87.3248 42.7305 87.5704 42.774C88.4243 42.9253 89.553 42.08 89.8589 44.2185C89.9865 45.1101 91.406 45.2043 91.8801 45.9695C92.3542 46.7347 92.4124 47.8392 91.7654 48.4644C91.2487 48.9636 90.4188 49.0213 89.7477 48.7662C89.0765 48.5112 88.5379 47.996 88.0674 47.4527C87.597 46.9095 87.1709 46.3216 86.6282 45.8508" fill="#2F2E41"/>
<path d="M90.014 49.0485C88.2824 48.8061 87.1021 48.1749 86.5059 47.1726C85.7255 45.8607 86.2482 44.4161 86.2708 44.3552L86.6369 44.4916C86.632 44.5048 86.1579 45.8272 86.8434 46.9756C87.3767 47.8689 88.4616 48.436 90.068 48.6609L90.014 49.0485Z" fill="#6C63FF"/>
<path d="M98.1401 24.5072C93.0494 24.5072 88.9072 20.3557 88.9072 15.2536C88.9072 10.1515 93.0494 6 98.1401 6C103.231 6 107.373 10.1515 107.373 15.2536C107.373 20.3557 103.231 24.5072 98.1401 24.5072ZM98.1401 9.70144C95.0853 9.70144 92.6004 12.192 92.6004 15.2536C92.6004 18.3152 95.0853 20.8057 98.1401 20.8057C101.195 20.8057 103.68 18.3152 103.68 15.2536C103.68 12.192 101.195 9.70144 98.1401 9.70144Z" fill="#6C63FF"/>
<path d="M112.346 30.7958C111.893 30.7958 111.439 30.6305 111.083 30.2952L102.418 22.1558C101.673 21.4573 101.635 20.2861 102.333 19.5406C103.029 18.7924 104.197 18.7553 104.942 19.4557L113.608 27.595C114.353 28.2936 114.391 29.4647 113.693 30.2102C113.329 30.5997 112.838 30.7958 112.346 30.7958Z" fill="#6C63FF"/>
<path d="M151.511 157.721C152.138 157.76 152.485 156.978 152.01 156.523L151.963 156.334C151.969 156.319 151.976 156.304 151.982 156.289C152.617 154.772 154.769 154.782 155.398 156.302C155.957 157.651 156.668 159.002 156.843 160.428C156.922 161.057 156.887 161.699 156.747 162.316C158.057 159.45 158.746 156.32 158.746 153.173C158.746 152.382 158.702 151.591 158.614 150.802C158.541 150.157 158.441 149.515 158.312 148.88C157.611 145.445 156.094 142.174 153.905 139.441C152.853 138.865 151.976 137.964 151.446 136.884C151.255 136.494 151.106 136.075 151.035 135.648C151.155 135.664 151.487 133.836 151.397 133.724C151.563 133.47 151.862 133.344 152.044 133.097C152.951 131.865 154.199 132.08 154.851 133.754C156.244 134.458 156.257 135.626 155.403 136.75C154.859 137.465 154.784 138.432 154.307 139.197C154.357 139.26 154.408 139.321 154.457 139.384C155.357 140.541 156.135 141.784 156.791 143.09C156.606 141.639 156.879 139.89 157.346 138.762C157.877 137.478 158.873 136.396 159.75 135.285C160.803 133.952 162.963 134.534 163.149 136.225C163.151 136.241 163.152 136.257 163.154 136.274C163.024 136.347 162.896 136.426 162.772 136.508C162.061 136.979 162.306 138.084 163.149 138.214L163.168 138.217C163.121 138.688 163.04 139.154 162.922 139.612C164.047 143.973 161.619 145.561 158.151 145.632C158.074 145.671 158 145.711 157.923 145.748C158.274 146.74 158.555 147.757 158.763 148.787C158.95 149.698 159.079 150.619 159.152 151.544C159.242 152.71 159.234 153.883 159.136 155.047L159.142 155.006C159.391 153.723 160.086 152.525 161.095 151.695C162.598 150.458 164.721 150.002 166.343 149.007C167.123 148.529 168.124 149.147 167.987 150.054L167.981 150.098C167.739 150.196 167.504 150.31 167.276 150.438C167.146 150.512 167.018 150.59 166.894 150.672C166.183 151.144 166.428 152.248 167.271 152.379L167.29 152.382C167.304 152.384 167.315 152.386 167.329 152.388C166.915 153.373 166.338 154.288 165.616 155.077C164.912 158.883 161.891 159.244 158.659 158.136H158.657C158.304 159.678 157.788 161.185 157.124 162.621H151.648C151.628 162.56 151.611 162.497 151.593 162.436C152.099 162.468 152.61 162.438 153.108 162.346C152.702 161.846 152.296 161.343 151.889 160.843C151.879 160.833 151.872 160.823 151.864 160.813C151.658 160.558 151.45 160.304 151.243 160.048L151.243 160.048C151.23 159.263 151.324 158.48 151.51 157.721L151.511 157.721Z" fill="#F2F2F2"/>
<path d="M0 162.638C0 162.839 0.161077 163 0.361661 163H167.596C167.796 163 167.957 162.839 167.957 162.638C167.957 162.437 167.796 162.275 167.596 162.275H0.361661C0.161077 162.275 0 162.437 0 162.638Z" fill="#CCCCCC"/>
</g>
<defs>
<clipPath id="clip0_736_14734">
<rect width="168" height="168" fill="white"/>
</clipPath>
</defs>
</svg>
