<svg width="168" height="168" viewBox="0 0 168 168" fill="none" xmlns="http://www.w3.org/2000/svg">
<g clip-path="url(#clip0_736_14855)">
<rect width="168" height="168" fill="white"/>
<path d="M86.3602 15H37.8327C30.2852 15 24.1667 21.1288 24.1667 28.6892V139.768C24.1667 147.328 30.2852 153.457 37.8327 153.457H86.3602C93.9077 153.457 100.026 147.328 100.026 139.768V28.6892C100.026 21.1288 93.9077 15 86.3602 15Z" fill="#3F3D56"/>
<path d="M98.7464 28.6901V139.768C98.7426 143.058 97.4363 146.211 95.1142 148.537C92.7921 150.863 89.6438 152.172 86.3599 152.176H37.8331C34.5492 152.172 31.4009 150.863 29.0788 148.537C26.7567 146.211 25.4505 143.058 25.4467 139.768V28.6901C25.4505 25.4006 26.7567 22.2469 29.0788 19.9208C31.4009 17.5948 34.5492 16.2864 37.8331 16.2825H44.1788V18.4783C44.1789 19.4723 44.5731 20.4256 45.2748 21.1285C45.9765 21.8314 46.9282 22.2264 47.9206 22.2264H76.2724C77.2648 22.2264 78.2165 21.8314 78.9182 21.1285C79.6199 20.4256 80.0142 19.4723 80.0142 18.4783V16.2825H86.3599C89.6438 16.2864 92.7921 17.5948 95.1142 19.9208C97.4363 22.2469 98.7426 25.4006 98.7464 28.6901Z" fill="white"/>
<path d="M77.9851 76.0989C75.172 74.8286 72.0361 77.7042 74.1229 80.395C67.0729 86.8276 56.6045 89.0911 47.4908 86.4003C47.266 86.9431 47.0296 87.4801 46.7875 88.0171C43.1659 96.0515 37.9781 103.28 31.5288 109.278C40.0199 102.205 50.4826 108.181 59.481 110.508C60.0934 110.613 60.6619 110.895 61.1172 111.318C61.5725 111.741 61.8947 112.289 62.0445 112.893C62.1943 113.496 62.1653 114.131 61.9608 114.719C61.7564 115.306 61.3854 115.822 60.8933 116.202C59.7471 115.776 58.5614 115.467 57.3539 115.278C56.7842 115.191 56.2016 115.283 55.6864 115.542C55.1712 115.8 54.7486 116.213 54.4768 116.722C54.205 117.231 54.0974 117.811 54.1687 118.384C54.2401 118.957 54.4869 119.494 54.8752 119.92C45.4501 124.447 33.7251 122.779 25.6375 116.277V112.414C34.198 105.829 41.0264 97.253 45.5308 87.4281C47.1142 83.9776 48.3949 80.3955 49.3585 76.7226C50.4114 72.7055 51.0603 68.5929 51.2954 64.4464C49.7447 59.8673 50.0041 54.4914 52.5866 50.3339C53.6531 52.2741 56.7255 52.7764 57.0483 50.0856C57.1175 49 57.1694 47.9145 57.2328 46.8347C68.8138 45.9397 66.8365 62.1828 52.6673 64.7235C52.391 68.8958 51.7154 73.0319 50.6497 77.0748C50.5517 77.479 50.4422 77.8774 50.3269 78.2759C52.9164 74.7321 56.3086 71.8546 60.2246 69.88C63.9658 68.1246 68.3238 67.7493 72.48 67.0737C77.5355 66.2479 81.1153 72.0338 77.9851 76.0989Z" fill="#F2F2F2"/>
<path d="M23.8178 43.0877C23.571 43.0874 23.3344 42.9891 23.1599 42.8143C22.9854 42.6395 22.8872 42.4025 22.887 42.1553V40.2906C22.887 40.0433 22.985 39.8061 23.1596 39.6313C23.3341 39.4564 23.5709 39.3582 23.8178 39.3582C24.0646 39.3582 24.3014 39.4564 24.4759 39.6313C24.6505 39.8061 24.7485 40.0433 24.7485 40.2906V42.1553C24.7483 42.4025 24.6501 42.6395 24.4756 42.8143C24.3011 42.9891 24.0645 43.0874 23.8178 43.0877Z" fill="#3F3D56"/>
<path d="M23.8178 52.6495C23.571 52.6492 23.3344 52.5509 23.1599 52.3761C22.9854 52.2013 22.8872 51.9643 22.887 51.7171V46.5841C22.887 46.3368 22.985 46.0996 23.1596 45.9248C23.3341 45.7499 23.5709 45.6517 23.8178 45.6517C24.0646 45.6517 24.3014 45.7499 24.4759 45.9248C24.6505 46.0996 24.7485 46.3368 24.7485 46.5841V51.7171C24.7483 51.9643 24.6501 52.2013 24.4756 52.3761C24.3011 52.5509 24.0645 52.6492 23.8178 52.6495Z" fill="#3F3D56"/>
<path d="M23.8178 60.3365C23.571 60.3363 23.3344 60.2379 23.1599 60.0631C22.9854 59.8883 22.8872 59.6514 22.887 59.4042V54.2711C22.887 54.0238 22.985 53.7867 23.1596 53.6118C23.3341 53.437 23.5709 53.3387 23.8178 53.3387C24.0646 53.3387 24.3014 53.437 24.4759 53.6118C24.6505 53.7867 24.7485 54.0238 24.7485 54.2711V59.4042C24.7483 59.6514 24.6501 59.8883 24.4756 60.0631C24.3011 60.2379 24.0645 60.3363 23.8178 60.3365Z" fill="#3F3D56"/>
<path d="M100.142 56.1409C99.8957 56.1406 99.6591 56.0423 99.4846 55.8675C99.3101 55.6927 99.212 55.4557 99.2117 55.2085V42.6836C99.2117 42.4363 99.3097 42.1992 99.4843 42.0243C99.6588 41.8495 99.8956 41.7513 100.142 41.7513C100.389 41.7513 100.626 41.8495 100.801 42.0243C100.975 42.1992 101.073 42.4363 101.073 42.6836V55.2085C101.073 55.4557 100.975 55.6927 100.8 55.8675C100.626 56.0423 100.389 56.1406 100.142 56.1409Z" fill="#3F3D56"/>
<path d="M64.0959 19.2763H56.8823C56.728 19.2763 56.58 19.2149 56.4709 19.1056C56.3618 18.9963 56.3005 18.8481 56.3005 18.6935C56.3005 18.539 56.3618 18.3908 56.4709 18.2815C56.58 18.1722 56.728 18.1108 56.8823 18.1108H64.0959C64.2502 18.1108 64.3982 18.1722 64.5073 18.2815C64.6164 18.3908 64.6776 18.539 64.6776 18.6935C64.6776 18.8481 64.6164 18.9963 64.5073 19.1056C64.3982 19.2149 64.2502 19.2763 64.0959 19.2763Z" fill="white"/>
<path d="M67.819 19.1597C68.0761 19.1597 68.2844 18.951 68.2844 18.6935C68.2844 18.4361 68.0761 18.2274 67.819 18.2274C67.562 18.2274 67.3536 18.4361 67.3536 18.6935C67.3536 18.951 67.562 19.1597 67.819 19.1597Z" fill="white"/>
<path d="M46.2418 50.0874H38.1596C37.0409 50.0861 35.9683 49.6404 35.1773 48.848C34.3862 48.0556 33.9412 46.9812 33.9399 45.8605V37.7647C33.9412 36.644 34.3862 35.5696 35.1773 34.7772C35.9683 33.9848 37.0409 33.5391 38.1596 33.5378H46.2418C47.3605 33.5391 48.4331 33.9848 49.2241 34.7772C50.0152 35.5696 50.4602 36.644 50.4615 37.7647V45.8605C50.4602 46.9812 50.0152 48.0556 49.2241 48.848C48.4331 49.6404 47.3605 50.0861 46.2418 50.0874ZM38.1596 34.004C37.1643 34.0051 36.21 34.4017 35.5062 35.1067C34.8024 35.8118 34.4065 36.7676 34.4053 37.7647V45.8605C34.4065 46.8576 34.8024 47.8135 35.5062 48.5185C36.21 49.2235 37.1643 49.6201 38.1596 49.6212H46.2418C47.2371 49.6201 48.1914 49.2235 48.8952 48.5185C49.599 47.8135 49.9949 46.8576 49.9961 45.8605V37.7647C49.9949 36.7676 49.599 35.8117 48.8952 35.1067C48.1914 34.4017 47.2371 34.0051 46.2418 34.004L38.1596 34.004Z" fill="#E6E6E6"/>
<path d="M66.1374 50.2039H58.0553C56.9365 50.2027 55.864 49.7569 55.0729 48.9645C54.2818 48.1721 53.8368 47.0977 53.8356 45.9771V37.8812C53.8368 36.7606 54.2818 35.6862 55.0729 34.8938C55.864 34.1014 56.9365 33.6556 58.0553 33.6544H66.1374C67.2561 33.6556 68.3287 34.1014 69.1198 34.8938C69.9109 35.6862 70.3558 36.7606 70.3571 37.8812V45.9771C70.3558 47.0977 69.9109 48.1721 69.1198 48.9645C68.3287 49.7569 67.2561 50.2027 66.1374 50.2039ZM58.0553 34.1206C57.0599 34.1217 56.1057 34.5183 55.4018 35.2233C54.698 35.9283 54.3021 36.8842 54.301 37.8812V45.9771C54.3021 46.9741 54.698 47.93 55.4018 48.635C56.1057 49.34 57.0599 49.7366 58.0553 49.7378H66.1374C67.1328 49.7366 68.087 49.34 68.7908 48.635C69.4946 47.93 69.8906 46.9741 69.8917 45.9771V37.8812C69.8906 36.8842 69.4946 35.9283 68.7908 35.2233C68.087 34.5183 67.1328 34.1217 66.1374 34.1205L58.0553 34.1206Z" fill="#E6E6E6"/>
<path d="M86.033 50.3205H77.9509C76.8321 50.3192 75.7596 49.8735 74.9685 49.0811C74.1774 48.2887 73.7325 47.2143 73.7312 46.0936V37.9978C73.7325 36.8771 74.1774 35.8027 74.9685 35.0103C75.7596 34.2179 76.8321 33.7722 77.9509 33.7709H86.033C87.1518 33.7722 88.2243 34.2179 89.0154 35.0103C89.8065 35.8027 90.2515 36.8771 90.2527 37.9978V46.0936C90.2515 47.2143 89.8065 48.2887 89.0154 49.0811C88.2243 49.8735 87.1518 50.3192 86.033 50.3205ZM77.9509 34.2371C76.9555 34.2382 76.0013 34.6348 75.2975 35.3398C74.5936 36.0448 74.1977 37.0007 74.1966 37.9978V46.0936C74.1977 47.0907 74.5936 48.0466 75.2975 48.7516C76.0013 49.4566 76.9555 49.8532 77.9509 49.8543H86.033C87.0284 49.8532 87.9826 49.4566 88.6865 48.7516C89.3903 48.0466 89.7862 47.0907 89.7873 46.0936V37.9978C89.7862 37.0007 89.3903 36.0448 88.6865 35.3398C87.9827 34.6348 87.0284 34.2382 86.033 34.2371L77.9509 34.2371Z" fill="#E6E6E6"/>
<path d="M46.2418 73.1636H38.1596C37.0409 73.1623 35.9683 72.7166 35.1773 71.9242C34.3862 71.1318 33.9412 70.0574 33.9399 68.9367V60.8409C33.9412 59.7202 34.3862 58.6458 35.1773 57.8534C35.9683 57.061 37.0409 56.6153 38.1596 56.614H46.2418C47.3605 56.6153 48.4331 57.061 49.2241 57.8534C50.0152 58.6458 50.4602 59.7202 50.4615 60.8409V68.9367C50.4602 70.0574 50.0152 71.1318 49.2241 71.9242C48.4331 72.7166 47.3605 73.1623 46.2418 73.1636ZM38.1596 57.0802C37.1643 57.0813 36.21 57.4779 35.5062 58.1829C34.8024 58.8879 34.4065 59.8438 34.4053 60.8409V68.9367C34.4065 69.9338 34.8024 70.8896 35.5062 71.5947C36.21 72.2997 37.1643 72.6963 38.1596 72.6974H46.2418C47.2371 72.6963 48.1914 72.2997 48.8952 71.5947C49.599 70.8896 49.9949 69.9338 49.9961 68.9367V60.8409C49.9949 59.8438 49.599 58.8879 48.8952 58.1829C48.1914 57.4779 47.2371 57.0813 46.2418 57.0802L38.1596 57.0802Z" fill="#E6E6E6"/>
<path d="M66.1374 73.2801H58.0553C56.9365 73.2789 55.864 72.8331 55.0729 72.0407C54.2818 71.2483 53.8368 70.1739 53.8356 69.0533V60.9574C53.8368 59.8368 54.2818 58.7624 55.0729 57.97C55.864 57.1775 56.9365 56.7318 58.0553 56.7305H66.1374C67.2561 56.7318 68.3287 57.1775 69.1198 57.97C69.9109 58.7624 70.3558 59.8368 70.3571 60.9574V69.0533C70.3558 70.1739 69.9109 71.2483 69.1198 72.0407C68.3287 72.8331 67.2561 73.2789 66.1374 73.2801ZM58.0553 57.1967C57.0599 57.1979 56.1057 57.5945 55.4018 58.2995C54.698 59.0045 54.3021 59.9604 54.301 60.9574V69.0533C54.3021 70.0503 54.698 71.0062 55.4018 71.7112C56.1057 72.4162 57.0599 72.8128 58.0553 72.8139H66.1374C67.1328 72.8128 68.087 72.4162 68.7908 71.7112C69.4946 71.0062 69.8906 70.0503 69.8917 69.0533V60.9574C69.8906 59.9604 69.4946 59.0045 68.7908 58.2995C68.087 57.5945 67.1328 57.1979 66.1374 57.1967L58.0553 57.1967Z" fill="#E6E6E6"/>
<path d="M86.033 73.3967H77.9509C76.8321 73.3954 75.7596 72.9497 74.9685 72.1573C74.1774 71.3649 73.7325 70.2905 73.7312 69.1698V61.0739C73.7325 59.9533 74.1774 58.8789 74.9685 58.0865C75.7596 57.2941 76.8321 56.8484 77.9509 56.8471H86.033C87.1518 56.8484 88.2243 57.2941 89.0154 58.0865C89.8065 58.8789 90.2515 59.9533 90.2527 61.0739V69.1698C90.2515 70.2905 89.8065 71.3649 89.0154 72.1573C88.2243 72.9497 87.1518 73.3954 86.033 73.3967ZM77.9509 57.3133C76.9555 57.3144 76.0013 57.711 75.2975 58.416C74.5936 59.121 74.1977 60.0769 74.1966 61.0739V69.1698C74.1977 70.1669 74.5936 71.1227 75.2975 71.8278C76.0013 72.5328 76.9555 72.9293 77.9509 72.9305H86.033C87.0284 72.9294 87.9826 72.5328 88.6865 71.8278C89.3903 71.1228 89.7862 70.1669 89.7873 69.1698V61.0739C89.7862 60.0769 89.3903 59.121 88.6865 58.416C87.9827 57.711 87.0284 57.3144 86.033 57.3133L77.9509 57.3133Z" fill="#E6E6E6"/>
<path d="M46.2419 143.091H38.1597C37.1027 143.09 36.0892 142.669 35.3418 141.92C34.5943 141.172 34.1739 140.157 34.1727 139.098V131.002C34.1739 129.943 34.5943 128.928 35.3418 128.179C36.0892 127.43 37.1027 127.009 38.1597 127.008H46.2419C47.2989 127.009 48.3123 127.43 49.0598 128.179C49.8072 128.928 50.2277 129.943 50.2289 131.002V139.098C50.2277 140.157 49.8072 141.172 49.0598 141.92C48.3123 142.669 47.2989 143.09 46.2419 143.091Z" fill="#6C63FF"/>
<path d="M66.1375 143.208H58.0553C56.9983 143.207 55.9849 142.786 55.2374 142.037C54.49 141.288 54.0695 140.273 54.0684 139.214V131.118C54.0695 130.06 54.49 129.044 55.2374 128.296C55.9849 127.547 56.9983 127.126 58.0553 127.125H66.1375C67.1946 127.126 68.208 127.547 68.9554 128.296C69.7029 129.044 70.1233 130.06 70.1245 131.118V139.214C70.1233 140.273 69.7029 141.288 68.9554 142.037C68.208 142.786 67.1946 143.207 66.1375 143.208Z" fill="#E6E6E6"/>
<path d="M86.0331 143.325H77.951C76.8939 143.323 75.8805 142.902 75.1331 142.153C74.3856 141.405 73.9652 140.39 73.964 139.331V131.235C73.9652 130.176 74.3856 129.161 75.1331 128.412C75.8805 127.663 76.8939 127.242 77.951 127.241H86.0331C87.0902 127.242 88.1036 127.663 88.8511 128.412C89.5985 129.161 90.0189 130.176 90.0201 131.235V139.331C90.0189 140.39 89.5985 141.405 88.8511 142.153C88.1036 142.902 87.0902 143.323 86.0331 143.325Z" fill="#E6E6E6"/>
<path d="M57.9079 120.365C58.5504 120.365 59.0714 119.843 59.0714 119.199C59.0714 118.556 58.5504 118.034 57.9079 118.034C57.2653 118.034 56.7444 118.556 56.7444 119.199C56.7444 119.843 57.2653 120.365 57.9079 120.365Z" fill="#CCCCCC"/>
<path d="M62.0965 120.365C62.739 120.365 63.26 119.843 63.26 119.199C63.26 118.556 62.739 118.034 62.0965 118.034C61.4539 118.034 60.933 118.556 60.933 119.199C60.933 119.843 61.4539 120.365 62.0965 120.365Z" fill="#E6E6E6"/>
<path d="M66.2849 120.365C66.9275 120.365 67.4484 119.843 67.4484 119.199C67.4484 118.556 66.9275 118.034 66.2849 118.034C65.6424 118.034 65.1215 118.556 65.1215 119.199C65.1215 119.843 65.6424 120.365 66.2849 120.365Z" fill="#E6E6E6"/>
<path d="M89.9239 145.772H34.3312C33.0636 145.771 31.8483 145.266 30.952 144.368C30.0556 143.47 29.5514 142.252 29.5499 140.983V129.117C29.5514 127.847 30.0556 126.63 30.952 125.732C31.8483 124.834 33.0636 124.329 34.3312 124.328H89.9239C91.1915 124.329 92.4068 124.834 93.3032 125.732C94.1995 126.63 94.7038 127.847 94.7052 129.117V140.983C94.7038 142.252 94.1995 143.47 93.3032 144.368C92.4068 145.266 91.1915 145.771 89.9239 145.772ZM34.3312 124.794C33.187 124.795 32.09 125.251 31.2809 126.061C30.4718 126.872 30.0166 127.971 30.0153 129.117V140.983C30.0166 142.129 30.4718 143.228 31.2809 144.038C32.09 144.849 33.187 145.305 34.3312 145.306H89.9239C91.0681 145.305 92.1651 144.849 92.9743 144.038C93.7834 143.228 94.2385 142.129 94.2398 140.983V129.117C94.2385 127.971 93.7834 126.872 92.9743 126.061C92.1651 125.251 91.0681 124.795 89.9239 124.794H34.3312Z" fill="#E6E6E6"/>
<path d="M138.25 45.229C137.786 45.301 137.369 45.5515 137.086 45.9272C136.804 46.3029 136.679 46.7741 136.739 47.2406C136.752 47.3352 136.773 47.4286 136.802 47.5197L131.8 51.3341L132.839 54.5577L139.128 48.5903C139.496 48.441 139.804 48.1739 140.004 47.8307C140.205 47.4875 140.286 47.0875 140.235 46.6932C140.205 46.4691 140.13 46.2533 140.016 46.058C139.902 45.8628 139.75 45.692 139.57 45.5554C139.39 45.4188 139.185 45.319 138.967 45.2618C138.748 45.2045 138.521 45.191 138.297 45.2219C138.281 45.224 138.266 45.2264 138.25 45.229Z" fill="#FFB6B6"/>
<path d="M103.742 62.9142C103.774 63.704 104.113 64.45 104.686 64.9931C105.26 65.5361 106.022 65.8333 106.811 65.8212L116.256 65.6764L128.2 60.1278C128.2 60.1278 132.094 56.8164 133.18 56.7384C134.266 56.6604 134.844 57.6725 134.598 56.7484C134.352 55.8244 134.027 55.2058 134.861 55.2921C135.696 55.3783 135.563 53.6731 135.748 53.0281C135.932 52.383 133.394 50.0551 133.394 50.0551C133.394 50.0551 131.564 50.0906 131.445 50.3314C131.325 50.5721 131.742 51.1789 130.758 51.1529C129.775 51.1269 129.025 51.1684 128.994 51.6256C128.963 52.0828 129.035 52.4392 128.49 52.7934C127.945 53.1475 125.486 54.9731 125.486 54.9731L106.03 59.8504C105.355 60.0197 104.759 60.4167 104.342 60.9748C103.925 61.5329 103.713 62.2178 103.742 62.9142Z" fill="#3F3D56"/>
<path d="M108.799 148.98H111.367L112.589 139.057H108.799V148.98Z" fill="#FFB6B6"/>
<path d="M107.961 147.218L112.064 146.973V148.734L115.965 151.433C116.158 151.566 116.303 151.758 116.379 151.979C116.456 152.201 116.459 152.441 116.39 152.665C116.32 152.889 116.181 153.085 115.992 153.224C115.803 153.363 115.575 153.438 115.341 153.438H110.456L109.614 151.696L109.285 153.438H107.443L107.961 147.218Z" fill="#2F2E41"/>
<path d="M113.088 85.401L114.485 76.7766L104.711 74.4456V83.3803L113.088 85.401Z" fill="#FFB6B6"/>
<path d="M100.872 93.6758L105.65 124.788C105.65 124.788 105.369 138.31 107.542 141.4L108.085 144.723H112.988C112.988 144.723 112.897 142.682 113.4 141.488C113.903 140.294 114.601 141.085 113.903 139.991C113.205 138.896 113.13 139.017 113.4 138.141C113.67 137.264 113.828 97.5273 113.828 97.5273L100.872 93.6758Z" fill="#2F2E41"/>
<path d="M103.782 133.7L105.27 135.797L114.053 131.045L111.856 127.95L103.782 133.7Z" fill="#FFB6B6"/>
<path d="M104.73 131.995L107.307 135.203L105.875 136.223L105.94 140.972C105.943 141.206 105.871 141.436 105.735 141.627C105.599 141.817 105.405 141.96 105.183 142.033C104.96 142.105 104.72 142.105 104.498 142.032C104.275 141.958 104.082 141.816 103.946 141.624L101.116 137.636L102.045 135.939L100.437 136.68L99.3698 135.177L104.73 131.995Z" fill="#2F2E41"/>
<path d="M104.246 78.1751L104.179 81.7849C104.179 81.7849 95.3466 89.5491 102.007 99.0132C102.007 99.0132 102.846 101.738 104.011 101.611C105.177 101.484 105.77 102.136 105.473 102.742C105.177 103.349 116.5 110.731 116.5 110.731C116.5 110.731 109.037 127.214 107.271 130.854L108.434 134.584C108.434 134.584 107.818 136.026 108.766 135.48C109.714 134.933 109.248 134.859 110.295 134.663C111.343 134.467 112.634 134.017 112.57 133.776C112.507 133.535 125.598 113.245 125.598 113.245C125.598 113.245 128.735 109.902 126.438 105.985C126.119 105.913 126.111 105.985 126.111 105.985L114.884 93.178L113.554 84.7017L104.246 78.1751Z" fill="#2F2E41"/>
<path d="M114.346 55.0349L108.691 52.3798L106.998 55.3309C106.998 55.3309 102.45 61.8311 102.384 66.5205C102.318 71.2099 103.125 72.6044 103.125 72.6044C103.125 72.6044 101.165 74.0727 102.145 74.9702C103.125 75.8677 105.296 76.2549 103.629 76.644C101.962 77.0331 102.384 80.9722 104.246 81.6715C106.107 82.3708 116.105 82.3647 116.105 82.3647C116.015 82.0593 116.009 81.7353 116.086 81.4265C116.163 81.1177 116.322 80.8352 116.545 80.6084C117.32 79.8302 118.018 80.3887 117.32 79.1771C116.622 77.9655 115.458 78.6648 116.389 77.0331C117.32 75.4015 117.319 74.9139 117.319 74.9139C117.319 74.9139 119.587 70.9977 116.359 67.3723C113.131 63.7469 116.331 67.1238 116.331 67.1238L114.023 59.3768L114.346 55.0349Z" fill="#3F3D56"/>
<path d="M137.258 77.942H129.176C128.119 77.9409 127.105 77.5197 126.358 76.771C125.61 76.0223 125.19 75.0071 125.189 73.9483V65.8524C125.19 64.7936 125.61 63.7784 126.358 63.0297C127.105 62.281 128.119 61.8598 129.176 61.8586H137.258C138.315 61.8598 139.328 62.281 140.076 63.0297C140.823 63.7784 141.244 64.7936 141.245 65.8524V73.9483C141.244 75.0071 140.823 76.0223 140.076 76.771C139.328 77.5197 138.315 77.9409 137.258 77.942Z" fill="#6C63FF"/>
<path d="M141.446 47.1738H133.364C132.307 47.1726 131.294 46.7515 130.546 46.0027C129.799 45.254 129.378 44.2389 129.377 43.18V35.0842C129.378 34.0253 129.799 33.0102 130.546 32.2615C131.294 31.5127 132.307 31.0916 133.364 31.0904H141.446C142.503 31.0916 143.517 31.5127 144.264 32.2615C145.012 33.0102 145.432 34.0253 145.433 35.0842V43.18C145.432 44.2389 145.012 45.254 144.264 46.0027C143.517 46.7515 142.503 47.1726 141.446 47.1738Z" fill="#6C63FF"/>
<path d="M119.575 51.9467L119.58 51.9462C119.841 51.9152 120.079 51.7816 120.241 51.5749C120.404 51.3682 120.478 51.1053 120.447 50.8439L119.799 45.3445C119.684 44.3592 119.372 43.407 118.883 42.5447C117.924 40.8623 116.355 39.6152 114.501 39.0633C113.544 38.7796 112.54 38.6929 111.549 38.8085C107.494 39.2812 106.218 40.4216 105.061 47.0193C103.903 53.617 105.709 52.527 105.709 52.527C105.725 52.6596 105.767 52.7877 105.833 52.9037C105.962 53.1298 106.173 53.2973 106.423 53.371C106.551 53.4087 106.685 53.4203 106.817 53.405C111.771 53.5941 116.781 53.837 119.576 51.9466L119.575 51.9467Z" fill="#2F2E41"/>
<path d="M108.886 44.7217C108.483 45.7222 108.385 46.8199 108.605 47.8762C108.824 48.9324 109.351 49.8999 110.119 50.6563C110.887 51.4127 111.861 51.9242 112.919 52.1262C113.977 52.3281 115.072 52.2115 116.063 51.791C116.72 51.5149 117.316 51.1109 117.816 50.6024C118.316 50.0939 118.711 49.4911 118.977 48.8289C119.379 47.829 119.476 46.7322 119.256 45.677C119.037 44.6217 118.51 43.6552 117.743 42.8992C116.976 42.1433 116.002 41.6319 114.946 41.4293C113.889 41.2268 112.795 41.3422 111.804 41.7612C111.146 42.0366 110.55 42.4402 110.049 42.9485C109.548 43.4567 109.153 44.0595 108.886 44.7219L108.886 44.7217Z" fill="#FFB6B6"/>
<path d="M121.593 45.5864C121.502 44.807 121.256 44.054 120.868 43.372C120.432 41.594 119.568 40.0843 117.403 40.6194C116.652 40.3968 115.863 40.328 115.084 40.417L113.984 40.5413C113.972 40.5427 113.959 40.5441 113.947 40.5456C112.41 40.7281 111.009 41.5146 110.052 42.732C109.094 43.9494 108.658 45.498 108.84 47.0372L108.853 47.1474L111.179 46.8821L111.71 44.5703L112.131 46.774L113.332 46.6375L113.6 45.4711L113.812 46.5822C115.888 47.7489 118.554 47.2618 121.605 45.6968L121.593 45.5864Z" fill="#2F2E41"/>
<path d="M115.4 52.2644C115.457 52.4378 115.464 52.624 115.421 52.8015C115.4 52.8924 115.366 52.9797 115.32 53.0611C115.281 53.1304 115.234 53.1949 115.18 53.2532C115.019 53.4253 114.803 53.5344 114.569 53.5609C114.555 53.5625 114.54 53.5638 114.525 53.5649C114.511 53.5659 114.496 53.5666 114.481 53.567C114.467 53.5675 114.452 53.5676 114.437 53.5673C114.422 53.5669 114.407 53.5663 114.392 53.5655L113.55 53.5128L112.127 51.2151L112.389 53.4427L108.558 53.2094L107.445 43.7566L113.737 43.0439L113.603 43.2431C113.159 43.9109 112.907 44.6887 112.875 45.4907C112.847 46.3026 112.958 47.1133 113.203 47.8877C113.445 48.6719 113.762 49.431 114.149 50.1546C114.488 50.7961 114.864 51.4174 115.275 52.0155C115.328 52.0922 115.37 52.176 115.4 52.2644Z" fill="#2F2E41"/>
<path d="M130.21 60.9911C129.773 61.1636 129.421 61.5 129.228 61.9287C129.035 62.3573 129.017 62.8445 129.177 63.2865C129.211 63.3758 129.253 63.4622 129.301 63.5447L125.259 68.3681L126.981 71.2837L131.804 64.0766C132.13 63.8499 132.372 63.5214 132.493 63.1425C132.613 62.7636 132.604 62.3555 132.468 61.9819C132.389 61.7701 132.269 61.576 132.115 61.4107C131.96 61.2454 131.775 61.1121 131.57 61.0185C131.364 60.9249 131.142 60.8728 130.916 60.8651C130.691 60.8575 130.466 60.8944 130.254 60.9738C130.239 60.9794 130.225 60.9851 130.21 60.9911Z" fill="#FFB6B6"/>
<path d="M109.04 60.0235C108.633 60.2078 108.27 60.4778 107.977 60.8151C107.683 61.1523 107.465 61.549 107.338 61.9782C107.211 62.4073 107.178 62.8587 107.241 63.3019C107.304 63.745 107.461 64.1694 107.702 64.5462L111.576 70.5996L120.651 78.7579C120.651 78.7579 128.097 73.3967 128.33 71.532C128.563 69.6672 127.865 69.2011 128.563 69.6672C129.261 70.1334 129.959 69.9003 129.726 69.6672C129.493 69.4341 129.585 69.4195 129.772 69.0772C129.959 68.7349 130.657 67.1032 130.657 67.1032L128.184 64.6557C128.184 64.6557 125.538 65.9378 125.305 66.637C125.072 67.3363 126.003 67.1032 125.072 67.3363C124.141 67.5694 122.898 66.5122 123.869 67.6236C124.84 68.7349 124.76 69.2176 123.869 69.2093C122.978 69.2011 121.349 71.532 121.349 71.532L112.738 60.9002C112.305 60.3655 111.707 59.9894 111.038 59.8308C110.369 59.6722 109.667 59.74 109.04 60.0235Z" fill="#3F3D56"/>
<path d="M136.768 147.872C136.938 147.878 137.106 147.832 137.249 147.74C137.392 147.647 137.503 147.513 137.567 147.355C137.631 147.197 137.645 147.024 137.607 146.858C137.569 146.692 137.482 146.541 137.356 146.427C137.334 146.344 137.318 146.284 137.297 146.201C137.455 145.786 137.734 145.428 138.097 145.172C138.461 144.917 138.892 144.776 139.335 144.767C139.779 144.759 140.215 144.883 140.588 145.125C140.96 145.366 141.253 145.714 141.427 146.123C142.431 148.418 143.726 150.791 143.118 153.335C147.212 144.425 145.686 133.404 139.439 125.877C137.723 124.951 136.323 123.291 135.945 121.351C136.792 121.63 137.839 120.932 137.195 120.046C136.917 119.708 136.636 119.373 136.357 119.035C139.533 115.581 143.408 120.925 139.92 125.579C141.089 127.019 142.105 128.578 142.95 130.229C142.742 128.469 142.954 126.684 143.568 125.022C144.193 123.472 145.378 122.16 146.419 120.816C147.686 119.177 150.332 119.902 150.524 121.964C149.344 122.365 149.207 124.078 150.563 124.3C150.245 128.142 147.774 131.694 144.342 133.41C145.65 136.977 146.183 140.782 145.907 144.572C146.474 140.141 151.206 139.021 154.504 137.231C154.714 137.093 154.959 137.02 155.209 137.019C155.46 137.019 155.705 137.092 155.915 137.229C156.125 137.366 156.291 137.561 156.392 137.79C156.494 138.02 156.526 138.274 156.486 138.522C156.03 138.713 155.594 138.948 155.185 139.225C154.993 139.357 154.847 139.545 154.766 139.764C154.685 139.982 154.673 140.22 154.733 140.445C154.792 140.67 154.92 140.872 155.098 141.021C155.276 141.171 155.496 141.262 155.728 141.282C154.097 145.44 149.803 148.263 145.366 148.289C144.958 150.149 144.357 151.962 143.574 153.697L136.989 153.76C136.965 153.687 136.943 153.611 136.921 153.538C137.531 153.571 138.143 153.529 138.742 153.412C137.111 151.515 135.855 150.551 136.768 147.872L136.768 147.872Z" fill="#F2F2F2"/>
<path d="M1.22562e-06 153.723C-0.000107228 153.759 0.00698299 153.795 0.0208615 153.829C0.03474 153.863 0.055135 153.893 0.0808716 153.919C0.106608 153.945 0.137178 153.965 0.170825 153.979C0.204471 153.993 0.24053 154 0.276926 154H166.723C166.797 154 166.867 153.971 166.919 153.919C166.971 153.867 167 153.796 167 153.723C167 153.649 166.971 153.579 166.919 153.526C166.867 153.474 166.797 153.445 166.723 153.445H0.276912C0.240517 153.445 0.204462 153.452 0.170817 153.466C0.137173 153.48 0.106603 153.5 0.080868 153.526C0.0551332 153.552 0.0347395 153.583 0.0208615 153.616C0.00698342 153.65 -0.000105983 153.686 1.22562e-06 153.723Z" fill="#CCCCCC"/>
<path d="M41.4063 21.7767H35.1234C34.8149 21.7767 34.5189 21.6539 34.3007 21.4354C34.0825 21.2168 33.96 20.9203 33.96 20.6112C33.96 20.3021 34.0825 20.0057 34.3007 19.7871C34.5189 19.5686 34.8149 19.4458 35.1234 19.4458H41.4063C41.7149 19.4458 42.0108 19.5686 42.229 19.7871C42.4472 20.0057 42.5698 20.3021 42.5698 20.6112C42.5698 20.9203 42.4472 21.2168 42.229 21.4354C42.0108 21.6539 41.7149 21.7767 41.4063 21.7767Z" fill="#E6E6E6"/>
<path d="M82.5938 21.6602C83.1721 21.6602 83.6409 21.1906 83.6409 20.6112C83.6409 20.0319 83.1721 19.5623 82.5938 19.5623C82.0155 19.5623 81.5466 20.0319 81.5466 20.6112C81.5466 21.1906 82.0155 21.6602 82.5938 21.6602Z" fill="#E6E6E6"/>
<path d="M85.8516 21.6602C86.4299 21.6602 86.8987 21.1906 86.8987 20.6112C86.8987 20.0319 86.4299 19.5623 85.8516 19.5623C85.2733 19.5623 84.8044 20.0319 84.8044 20.6112C84.8044 21.1906 85.2733 21.6602 85.8516 21.6602Z" fill="#E6E6E6"/>
<path d="M89.1093 21.6602C89.6876 21.6602 90.1564 21.1906 90.1564 20.6112C90.1564 20.0319 89.6876 19.5623 89.1093 19.5623C88.531 19.5623 88.0621 20.0319 88.0621 20.6112C88.0621 21.1906 88.531 21.6602 89.1093 21.6602Z" fill="#E6E6E6"/>
<path d="M48.7363 60.8197C50.2785 60.8197 51.5287 59.5674 51.5287 58.0226C51.5287 56.4778 50.2785 55.2255 48.7363 55.2255C47.1942 55.2255 45.944 56.4778 45.944 58.0226C45.944 59.5674 47.1942 60.8197 48.7363 60.8197Z" fill="#CCCCCC"/>
<path d="M68.981 131.68C70.5232 131.68 71.7733 130.428 71.7733 128.883C71.7733 127.338 70.5232 126.086 68.981 126.086C67.4388 126.086 66.1886 127.338 66.1886 128.883C66.1886 130.428 67.4388 131.68 68.981 131.68Z" fill="#CCCCCC"/>
<path d="M46.2418 96.2398H38.1596C37.0409 96.2385 35.9683 95.7928 35.1773 95.0004C34.3862 94.2079 33.9412 93.1336 33.9399 92.0129V83.917C33.9412 82.7964 34.3862 81.722 35.1773 80.9296C35.9683 80.1372 37.0409 79.6915 38.1596 79.6902H46.2418C47.3605 79.6915 48.4331 80.1372 49.2241 80.9296C50.0152 81.722 50.4602 82.7964 50.4615 83.917V92.0129C50.4602 93.1336 50.0152 94.2079 49.2241 95.0004C48.4331 95.7928 47.3605 96.2385 46.2418 96.2398ZM38.1596 80.1564C37.1643 80.1575 36.21 80.5541 35.5062 81.2591C34.8024 81.9641 34.4065 82.92 34.4053 83.917V92.0129C34.4065 93.01 34.8024 93.9658 35.5062 94.6709C36.21 95.3759 37.1643 95.7725 38.1596 95.7736H46.2418C47.2371 95.7725 48.1914 95.3759 48.8952 94.6709C49.599 93.9658 49.9949 93.01 49.9961 92.0129V83.917C49.9949 82.92 49.599 81.9641 48.8952 81.2591C48.1914 80.5541 47.2371 80.1575 46.2418 80.1564L38.1596 80.1564Z" fill="#E6E6E6"/>
<path d="M66.1374 96.3563H58.0553C56.9365 96.3551 55.864 95.9093 55.0729 95.1169C54.2818 94.3245 53.8368 93.2501 53.8356 92.1295V84.0336C53.8368 82.9129 54.2818 81.8386 55.0729 81.0461C55.864 80.2537 56.9365 79.808 58.0553 79.8067H66.1374C67.2561 79.808 68.3287 80.2537 69.1198 81.0461C69.9109 81.8386 70.3558 82.9129 70.3571 84.0336V92.1295C70.3558 93.2501 69.9109 94.3245 69.1198 95.1169C68.3287 95.9093 67.2561 96.3551 66.1374 96.3563ZM58.0553 80.2729C57.0599 80.2741 56.1057 80.6706 55.4018 81.3757C54.698 82.0807 54.3021 83.0365 54.301 84.0336V92.1295C54.3021 93.1265 54.698 94.0824 55.4018 94.7874C56.1056 95.4924 57.0599 95.889 58.0553 95.8901H66.1374C67.1328 95.889 68.087 95.4924 68.7908 94.7874C69.4947 94.0824 69.8906 93.1265 69.8917 92.1295V84.0336C69.8906 83.0365 69.4946 82.0807 68.7908 81.3757C68.087 80.6706 67.1328 80.2741 66.1374 80.2729L58.0553 80.2729Z" fill="#E6E6E6"/>
<path d="M86.033 96.4729H77.9509C76.8321 96.4716 75.7596 96.0259 74.9685 95.2335C74.1774 94.441 73.7325 93.3667 73.7312 92.246V84.1501C73.7325 83.0295 74.1774 81.9551 74.9685 81.1627C75.7596 80.3703 76.8321 79.9245 77.9509 79.9233H86.033C87.1518 79.9245 88.2243 80.3703 89.0154 81.1627C89.8065 81.9551 90.2515 83.0295 90.2527 84.1501V92.246C90.2515 93.3667 89.8065 94.441 89.0154 95.2335C88.2243 96.0259 87.1518 96.4716 86.033 96.4729ZM77.9509 80.3895C76.9555 80.3906 76.0013 80.7872 75.2975 81.4922C74.5936 82.1972 74.1977 83.1531 74.1966 84.1501V92.246C74.1977 93.2431 74.5936 94.1989 75.2974 94.904C76.0013 95.609 76.9555 96.0056 77.9509 96.0067H86.033C87.0284 96.0056 87.9827 95.609 88.6865 94.904C89.3903 94.199 89.7862 93.2431 89.7873 92.246V84.1501C89.7862 83.1531 89.3903 82.1972 88.6865 81.4922C87.9827 80.7872 87.0284 80.3906 86.033 80.3895L77.9509 80.3895Z" fill="#E6E6E6"/>
<path d="M68.981 84.3621C70.5232 84.3621 71.7733 83.1098 71.7733 81.565C71.7733 80.0202 70.5232 78.7679 68.981 78.7679C67.4388 78.7679 66.1886 80.0202 66.1886 81.565C66.1886 83.1098 67.4388 84.3621 68.981 84.3621Z" fill="#CCCCCC"/>
</g>
<defs>
<clipPath id="clip0_736_14855">
<rect width="168" height="168" fill="white"/>
</clipPath>
</defs>
</svg>
