<svg width="169" height="168" viewBox="0 0 169 168" fill="none" xmlns="http://www.w3.org/2000/svg">
<g clip-path="url(#clip0_736_14765)">
<rect width="168" height="168" fill="white"/>
<path d="M149.616 159L149.763 158.946C154.745 157.073 158.648 153.112 160.436 148.113C160.92 146.724 161.227 145.28 161.349 143.815L161.361 143.675L161.223 143.7C159.568 143.995 157.831 144.159 157.057 144.223L161.399 141.36L161.391 141.211C161.324 139.814 160.409 138.598 159.082 138.14C157.743 137.647 156.237 138.016 155.279 139.072C154.848 139.538 154.391 140.008 153.95 140.463C152.434 142.025 150.866 143.639 149.874 145.546C148.383 148.483 148.302 151.934 149.654 154.938L149.616 159H149.616Z" fill="#F2F2F2"/>
<path d="M61.7686 156.226L61.7704 156.21C61.9623 151.964 62.7442 147.765 64.0936 143.733L64.0949 143.726C64.1736 143.312 64.1507 142.885 64.0282 142.482C63.6513 141.326 62.4826 140.618 61.2791 140.817C60.0359 141.05 58.7501 140.831 57.6549 140.2C56.9593 139.798 56.1152 139.743 55.3725 140.05C54.6722 140.334 54.1483 140.932 53.9599 141.662C53.9452 141.72 53.9323 141.778 53.9213 141.837C53.8818 146.103 53.0955 150.329 51.5976 154.326L51.5966 154.331C51.4399 155.156 51.6899 156.006 52.2689 156.617C52.7806 157.134 53.4976 157.397 54.2239 157.333C55.5276 157.244 56.8684 157.508 58.3229 158.139C58.831 158.364 59.4023 158.404 59.937 158.252C60.8825 157.975 61.5912 157.192 61.7686 156.226Z" fill="#6C63FF"/>
<path d="M103.443 97.8973V153.657H64.2418V97.8973C64.2405 97.074 64.7783 96.3462 65.5676 96.1031C65.7489 96.0435 65.9388 96.0141 66.1296 96.0162H101.55C102.594 96.0141 103.441 96.8555 103.443 97.8954V97.8973ZM88.1447 117.057C88.1234 114.754 86.2326 112.904 83.9214 112.925C81.6402 112.946 79.7961 114.783 79.7751 117.057V123.526C79.786 125.829 81.6685 127.688 83.9797 127.677C86.2754 127.666 88.1338 125.814 88.1447 123.526V117.057Z" fill="#F2F2F2"/>
<path d="M103.563 151.874V157.251C103.562 157.831 103.092 158.301 102.51 158.306H65.1748C64.5923 158.303 64.1217 157.831 64.1217 157.251V151.874H103.563Z" fill="#E6E6E6"/>
<path d="M165.113 13.8877V115.697C165.111 118.399 162.913 120.588 160.202 120.59H8.79765C6.08659 120.588 3.88936 118.399 3.88724 115.697V13.8877C3.89368 11.1889 6.08926 9.00342 8.79765 9H160.202C162.911 9.00344 165.106 11.1889 165.113 13.8877H165.113Z" fill="#E6E6E6"/>
<path d="M10.0607 12.5339H158.939C160.389 12.5371 161.563 13.7094 161.564 15.1545V114.441C161.561 115.885 160.388 117.054 158.939 117.057H10.0607C8.61234 117.054 7.43884 115.885 7.43636 114.441V15.1545C7.43649 13.7094 8.61047 12.5371 10.0607 12.5339V12.5339ZM47.6159 83.0729C48.0608 83.949 48.9633 84.5003 49.9487 84.498L49.9643 84.4969C51.3915 84.2987 52.824 84.1681 54.2618 84.1049C54.0386 84.2642 53.8421 84.4578 53.6798 84.6785C53.2625 85.2742 53.1343 86.0247 53.3302 86.7245C53.6554 87.9856 53.64 89.3474 53.2828 90.8876C53.1532 91.4264 53.2179 91.9935 53.4658 92.4895C53.9108 93.3656 54.8133 93.9169 55.7986 93.9146L55.8142 93.9135C59.2226 93.4404 62.6734 93.3488 66.1023 93.6404C66.1158 93.7265 66.1329 93.8129 66.1551 93.899C66.4803 95.1602 66.4649 96.5219 66.1076 98.0621C65.978 98.601 66.0428 99.1681 66.2907 99.6641C66.7356 100.54 67.6381 101.091 68.6235 101.089L68.6391 101.088C72.1395 100.602 75.6844 100.519 79.2039 100.84C79.2306 101.716 79.1393 102.591 78.9325 103.443C78.8029 103.982 78.8677 104.549 79.1155 105.045C79.5605 105.921 80.463 106.472 81.4483 106.47L81.4639 106.469C85.6886 105.882 89.9745 105.882 94.1992 106.469H94.206C94.6289 106.471 95.046 106.37 95.4217 106.177C96.4938 105.597 96.979 104.322 96.563 103.179C96.4353 102.82 96.3405 102.449 96.2795 102.072C100.151 101.628 104.064 101.674 107.924 102.209H107.931C108.354 102.211 108.771 102.11 109.147 101.917C110.219 101.337 110.704 100.062 110.288 98.9196C109.831 97.744 109.813 96.4444 110.235 95.2562C110.434 94.6991 110.434 94.0906 110.235 93.5334C113.145 93.3857 116.063 93.5129 118.949 93.9135H118.956C119.379 93.9151 119.796 93.8148 120.171 93.6212C121.244 93.041 121.729 91.7668 121.313 90.624C120.856 89.4484 120.838 88.1488 121.26 86.9606C121.53 86.2058 121.431 85.3686 120.992 84.697C120.584 84.0627 119.898 83.6585 119.144 83.6072C119.084 83.6032 119.025 83.6012 118.965 83.6012C117.486 83.8587 115.993 84.0268 114.494 84.1044C115.45 83.4781 115.851 82.2801 115.463 81.2074C115.006 80.0318 114.988 78.7321 115.41 77.544C115.68 76.7891 115.581 75.952 115.142 75.2804C115.123 75.2515 115.101 75.2258 115.081 75.1979C116.148 75.2712 117.212 75.3815 118.274 75.5287H118.281C118.704 75.5303 119.121 75.43 119.496 75.2364C120.569 74.6562 121.054 73.382 120.638 72.2392C120.181 71.0636 120.163 69.7639 120.585 68.5758C120.855 67.8209 120.756 66.9838 120.317 66.3122C119.909 65.6779 119.223 65.2737 118.469 65.2224C118.409 65.2184 118.35 65.2163 118.29 65.2163C116.512 65.5265 114.713 65.7069 112.909 65.7561C113.369 65.095 113.482 64.2536 113.213 63.4952C112.756 62.3196 112.738 61.0199 113.16 59.8318C113.43 59.0769 113.331 58.2398 112.892 57.5682C112.484 56.9339 111.798 56.5297 111.044 56.4784C110.984 56.4744 110.925 56.4723 110.865 56.4723C109.36 56.7345 107.841 56.904 106.315 56.9799C106.643 56.3615 106.696 55.6348 106.463 54.9754C106.006 53.7998 105.988 52.5001 106.41 51.312C106.68 50.5571 106.581 49.72 106.142 49.0484C105.734 48.4141 105.048 48.0099 104.294 47.9585C104.234 47.9546 104.175 47.9525 104.115 47.9525C102.344 48.2613 100.554 48.4415 98.7571 48.4915C99.0017 47.9157 99.0216 47.2695 98.8129 46.6798C98.3564 45.5042 98.3377 44.2045 98.7602 43.0164C99.03 42.2615 98.931 41.4244 98.4923 40.7528C98.0839 40.1185 97.3983 39.7143 96.6438 39.663C96.5845 39.659 96.5249 39.6569 96.4647 39.6569C92.2481 40.3965 87.9344 40.397 83.7176 39.6586H83.7124C83.3869 39.7254 83.0512 39.7254 82.7258 39.6586H82.7205C78.5038 40.397 74.19 40.3965 69.9734 39.6569C69.9132 39.6569 69.8537 39.659 69.7944 39.663C69.0399 39.7143 68.3543 40.1185 67.9458 40.7528C67.5072 41.4244 67.4081 42.2615 67.678 43.0164C68.1004 44.2045 68.0817 45.5042 67.6253 46.6798C67.4166 47.2695 67.4365 47.9157 67.6811 48.4915C65.8845 48.4415 64.0939 48.2613 62.3235 47.9525C62.2633 47.9525 62.2038 47.9546 62.1445 47.9585C61.3899 48.0099 60.7043 48.4141 60.2959 49.0484C59.8573 49.72 59.7582 50.5571 60.0281 51.312C60.4505 52.5001 60.4318 53.7998 59.9753 54.9754C59.7418 55.6348 59.7953 56.3615 60.123 56.9799C58.5975 56.904 57.0782 56.7345 55.5736 56.4723C55.5134 56.4723 55.4538 56.4744 55.3945 56.4784C54.64 56.5297 53.9544 56.9339 53.546 57.5682C53.1073 58.2398 53.0083 59.0769 53.2781 59.8318C53.7006 61.0199 53.6819 62.3196 53.2254 63.4952C52.9551 64.2556 53.0694 65.0992 53.5324 65.7609C53.3315 65.912 53.1538 66.0915 53.0048 66.2937C52.5875 66.8894 52.4593 67.6399 52.6552 68.3397C52.9804 69.6008 52.965 70.9626 52.6078 72.5028C52.4781 73.0416 52.5429 73.6087 52.7908 74.1047C52.8815 74.2813 52.9919 74.4471 53.1199 74.599C52.0666 74.5067 51.016 74.3691 49.968 74.1862H49.9627C49.1198 74.1832 48.3266 74.5833 47.8298 75.2619C47.4126 75.8576 47.2843 76.6081 47.4803 77.3079C47.8055 78.569 47.7901 79.9308 47.4328 81.471C47.3032 82.0098 47.368 82.5769 47.6158 83.0729L47.6159 83.0729Z" fill="white"/>
<path d="M14.8896 26.2112H154.195C154.501 26.2045 154.743 25.9519 154.736 25.647C154.73 25.3516 154.491 25.1136 154.195 25.1071H14.8896C14.5836 25.1138 14.3411 25.3664 14.3478 25.6713C14.3543 25.9667 14.5931 26.2047 14.8896 26.2112Z" fill="#E6E6E6"/>
<path d="M82.8591 103.825L82.8747 103.824C87.0993 103.238 91.3852 103.238 95.6099 103.824H95.6167C96.0397 103.826 96.4567 103.726 96.8324 103.532C97.9045 102.952 98.3897 101.678 97.9737 100.535C97.5172 99.3591 97.4985 98.0595 97.9209 96.8714C98.1908 96.1165 98.0917 95.2794 97.6531 94.6077C97.2447 93.9735 96.5591 93.5693 95.8046 93.5179C95.7452 93.514 95.6857 93.5119 95.6255 93.5119C91.4089 94.2514 87.0952 94.252 82.8784 93.5135H82.8731C82.0302 93.5106 81.237 93.9106 80.7403 94.5892C80.323 95.185 80.1947 95.9354 80.3907 96.6352C80.7159 97.8964 80.7005 99.2581 80.3432 100.798C80.2136 101.337 80.2784 101.904 80.5263 102.4C80.9712 103.276 81.8737 103.828 82.8591 103.825Z" fill="#6C63FF"/>
<path d="M69.867 81.8427L73.2658 79.0401C75.8145 80.3713 79.6927 85.6859 79.6927 85.6859L88.6395 92.0978C89.7139 92.1488 90.5434 93.0581 90.4923 94.1288C90.4411 95.1995 89.5286 96.0261 88.4541 95.9751C87.7569 95.942 87.1307 95.5396 86.8128 94.9203L74.6567 88.5193L69.867 81.8427V81.8427Z" fill="#FFB8B8"/>
<path d="M64.1331 71.1759C62.1714 72.8313 61.928 75.758 63.5893 77.7127C63.7754 77.9317 63.9816 78.1331 64.2051 78.3141L66.3664 80.065C66.3664 80.065 71.7575 87.7986 74.5637 88.6958L81.7679 92.4462L85.0164 89.2007L78.4872 83.8984C78.4872 83.8984 75.4842 81.068 75.1835 78.996C74.9993 77.7271 72.8442 74.2706 70.684 71.7069C69.026 69.758 66.0964 69.5174 64.1406 71.1695L64.1331 71.1759V71.1759Z" fill="#3F3D56"/>
<path d="M71.1177 155.108L74.1882 155.108L75.6489 143.306L71.117 143.306L71.1177 155.108Z" fill="#FFB6B6"/>
<path d="M71.0096 158.3L80.452 158.3V158.181C80.4519 156.158 78.8065 154.519 76.7768 154.519H76.7766L75.0518 153.215L71.8337 154.519L71.0095 154.519L71.0096 158.3Z" fill="#2F2E41"/>
<path d="M47.7216 139.004L49.1758 141.698L60.2992 137.392L58.1529 133.414L47.7216 139.004Z" fill="#FFB6B6"/>
<path d="M44.849 140.42L49.3206 148.707L49.4258 148.651C51.2135 147.693 51.8835 145.473 50.9225 143.691L50.9224 143.691L51.2582 141.56L48.5816 139.353L48.1913 138.629L44.849 140.42Z" fill="#2F2E41"/>
<path d="M76.9231 101.061L79.6332 122.665L78.2781 129.908L53.8874 140.556L52.5323 136.168C58.7669 132.366 65.4316 126.613 69.631 126.19C69.631 126.19 69.9794 122.356 66.9709 119.99C66.3639 119.513 66.4967 118.867 66.2512 118.281C66.0824 117.879 65.411 117.459 65.2389 117.046C65.0161 116.511 65.2919 115.979 65.0678 115.435C64.9418 115.13 64.4642 115.11 64.339 114.804C64.1253 114.282 64.2652 113.474 64.0571 112.958C63.6123 111.856 63.1848 110.778 62.7944 109.768C61.5792 106.623 60.7239 104.131 60.832 103.593C61.1707 101.905 76.9231 101.061 76.9231 101.061Z" fill="#2F2E41"/>
<path d="M77.3898 122.603L78.8076 131.726L75.2292 150.346H70.4866C68.7827 144.09 68.6948 135.867 70.3172 128.91L77.3898 122.603Z" fill="#2F2E41"/>
<path d="M74.3428 74.6648L72.1565 70.8686L69.8091 68.9921L65.4052 68.3169L64.1817 69.2544C59.7785 75.9604 58.1365 84.0988 59.5966 91.9795L59.9403 93.8345L60.1585 95.012L60.064 96.4195L60.7989 98.4685L60.6978 99.9689L60.6439 100.77L60.5897 101.575L60.514 102.697C60.3786 103.338 61.0605 103.253 60.964 103.818C60.7947 104.81 60.0351 106.28 61.189 106.285L73.1139 103.818C76.1433 103.831 78.9638 100.231 76.0389 97.3163L74.3428 74.6648H74.3428Z" fill="#3F3D56"/>
<path d="M68.7611 67.2594C65.563 67.2594 62.9704 64.6759 62.9704 61.4891C62.9704 58.3023 65.563 55.7188 68.7611 55.7188C71.9592 55.7188 74.5518 58.3023 74.5518 61.4891C74.5518 64.6759 71.9592 67.2594 68.7611 67.2594Z" fill="#FFB8B8"/>
<path d="M68.6629 67.0955C67.8156 67.1086 66.9688 67.0496 66.1315 66.9192C65.3017 66.751 63.4453 65.3954 62.9277 64.5796C62.5432 63.9735 62.2974 63.0271 62.1588 62.3399C61.7814 60.5008 62.2042 58.5885 63.3222 57.0777C63.5347 56.7652 63.828 56.5158 64.171 56.3558C64.2014 56.3439 64.2327 56.3334 64.2643 56.3244C64.7642 56.1934 65.2134 55.9164 65.5542 55.5291C65.6203 55.4508 65.692 55.3773 65.7686 55.3092C66.1538 54.9853 66.6104 54.7568 67.1012 54.6425C67.8933 54.4312 69.0397 54.6409 70.5085 55.2663C71.2464 55.5806 72.0534 55.4669 72.6742 55.3327C72.745 55.319 72.8178 55.3439 72.8654 55.398C73.1295 55.6451 73.4777 55.7834 73.84 55.7851C74.0619 55.7948 74.2947 56.101 74.5761 56.5002C74.64 56.5908 74.7145 56.6966 74.7682 56.7609L74.7754 56.6373L74.9009 56.7752C75.5467 57.4845 75.4932 58.5811 74.7814 59.2245C74.5901 59.3975 74.3626 59.5258 74.1153 59.6002C73.8921 59.6594 73.6634 59.6957 73.4328 59.7086C73.2931 59.7211 73.1486 59.7341 73.0102 59.758C72.1061 59.9425 71.3658 60.5867 71.0606 61.4545C70.9327 61.8099 70.5399 61.9947 70.1832 61.8673C70.1272 61.8473 70.074 61.8201 70.0251 61.7864C69.7323 61.5592 69.3465 61.4892 68.9921 61.599C68.8413 61.6826 68.7238 61.8153 68.6595 61.9749C68.5814 62.1528 68.4518 62.3034 68.2874 62.4076C67.725 62.6965 67.6863 63.9764 67.8882 65.0433C68.0829 66.0718 68.4678 66.8158 68.8241 66.8526C69.0984 66.8808 69.1298 66.9003 69.1496 66.9486L69.1674 66.9919L69.1366 67.0324C68.9851 67.0871 68.8235 67.1086 68.6629 67.0955Z" fill="#2F2E41"/>
<path d="M80.3841 63.6926L80.3997 63.6915C84.6244 63.1049 88.9102 63.1049 93.1349 63.6915H93.1417C93.5647 63.6931 93.9818 63.5928 94.3575 63.3992C95.4295 62.819 95.9147 61.5448 95.4987 60.402C95.0422 59.2264 95.0235 57.9268 95.446 56.7386C95.7158 55.9838 95.6168 55.1466 95.1781 54.475C94.7697 53.8407 94.0841 53.4365 93.3296 53.3852C93.2703 53.3812 93.2107 53.3792 93.1505 53.3792C88.9339 54.1187 84.6202 54.1193 80.4034 53.3808H80.3982C79.5552 53.3779 78.762 53.7779 78.2653 54.4565C77.848 55.0523 77.7198 55.8027 77.9157 56.5025C78.2409 57.7636 78.2255 59.1254 77.8682 60.6656C77.7386 61.2045 77.8034 61.7715 78.0513 62.2676C78.4962 63.1436 79.3988 63.6949 80.3841 63.6926Z" fill="#6C63FF"/>
<path d="M74.969 77.283L72.5729 73.5919C74.1975 71.2252 79.9476 68.0082 79.9476 68.0082L87.3836 59.9033C87.56 58.8459 88.5632 58.1312 89.6243 58.307C90.6854 58.4828 91.4026 59.4824 91.2263 60.5398C91.1118 61.226 90.6376 61.7986 89.9832 62.0409L82.183 73.3231L74.969 77.283H74.969Z" fill="#FFB8B8"/>
<path d="M63.6678 81.7112C65.0885 83.846 67.9769 84.429 70.1192 83.0133C70.3593 82.8546 70.584 82.6741 70.7906 82.4741L72.7881 80.5398C72.7881 80.5398 81.1614 76.183 82.3836 73.5107L87.87 65.7562L84.1913 62.4493L77.7972 68.2414C77.7972 68.2414 74.8533 71.6336 72.7531 71.6891C71.467 71.723 67.7702 73.452 64.9626 75.2902C62.8264 76.7032 62.2442 79.5744 63.6623 81.703L63.6678 81.7112Z" fill="#3F3D56"/>
<path d="M119.447 158.267L119.463 158.265C123.687 157.679 127.973 157.679 132.198 158.265H132.205C132.628 158.267 133.045 158.167 133.42 157.973C134.492 157.393 134.978 156.119 134.562 154.976C134.105 153.8 134.086 152.501 134.509 151.313C134.779 150.558 134.68 149.721 134.241 149.049C133.833 148.415 133.147 148.011 132.392 147.959C132.333 147.955 132.274 147.953 132.213 147.953C127.997 148.693 123.683 148.693 119.466 147.955H119.461C118.618 147.952 117.825 148.352 117.328 149.03C116.911 149.626 116.783 150.377 116.979 151.076C117.304 152.338 117.288 153.699 116.931 155.24C116.801 155.778 116.866 156.346 117.114 156.842C117.559 157.718 118.462 158.269 119.447 158.267H119.447Z" fill="#6C63FF"/>
<path d="M115.847 148.85L115.863 148.849C120.087 148.262 124.373 148.262 128.598 148.849H128.605C129.028 148.85 129.445 148.75 129.82 148.557C130.892 147.976 131.378 146.702 130.962 145.559C130.505 144.384 130.486 143.084 130.909 141.896C131.179 141.141 131.08 140.304 130.641 139.632C130.233 138.998 129.547 138.594 128.792 138.543C128.733 138.539 128.674 138.536 128.613 138.536C124.397 139.276 120.083 139.277 115.866 138.538H115.861C115.018 138.535 114.225 138.935 113.728 139.614C113.311 140.21 113.183 140.96 113.379 141.66C113.704 142.921 113.688 144.283 113.331 145.823C113.202 146.362 113.266 146.929 113.514 147.425C113.959 148.301 114.862 148.852 115.847 148.85H115.847Z" fill="#6C63FF"/>
<path d="M147.35 151.417L147.34 151.405C144.485 148.247 142.084 144.709 140.204 140.894L140.2 140.888C139.965 140.538 139.648 140.25 139.276 140.048C138.193 139.489 136.862 139.802 136.145 140.786C135.424 141.821 134.354 142.565 133.13 142.882C132.351 143.082 131.711 143.633 131.398 144.371C131.1 145.064 131.148 145.856 131.528 146.508C131.558 146.559 131.59 146.609 131.624 146.659C134.601 149.725 137.019 153.285 138.767 157.179L138.77 157.183C139.24 157.881 140.017 158.311 140.86 158.341C141.589 158.352 142.284 158.037 142.756 157.483C143.622 156.508 144.763 155.758 146.243 155.19C146.764 154.995 147.199 154.623 147.472 154.141C147.951 153.283 147.904 152.229 147.35 151.417Z" fill="#6C63FF"/>
<path d="M0.266495 158.608L168.733 158.677C168.881 158.677 169.001 158.556 169 158.409C168.999 158.263 168.88 158.144 168.733 158.143L0.266495 158.075C0.118546 158.075 -0.000778198 158.196 0 158.343C0.000762939 158.489 0.119629 158.608 0.266495 158.608Z" fill="#CACACA"/>
<path d="M132.944 21.0865C131.893 21.0865 131.041 20.2187 131.041 19.1482C131.041 18.0777 131.893 17.2099 132.944 17.2099C133.995 17.2099 134.847 18.0777 134.847 19.1482C134.847 20.2187 133.995 21.0865 132.944 21.0865Z" fill="#3F3D56"/>
<path d="M126.371 21.0865C125.32 21.0865 124.468 20.2187 124.468 19.1482C124.468 18.0777 125.32 17.2099 126.371 17.2099C127.422 17.2099 128.274 18.0777 128.274 19.1482C128.274 20.2187 127.422 21.0865 126.371 21.0865Z" fill="#3F3D56"/>
<path d="M119.798 21.0865C118.747 21.0865 117.895 20.2187 117.895 19.1482C117.895 18.0777 118.747 17.2099 119.798 17.2099C120.849 17.2099 121.701 18.0777 121.701 19.1482C121.701 20.2187 120.849 21.0865 119.798 21.0865Z" fill="#3F3D56"/>
<path d="M112.303 20.6802C112.361 20.6802 112.42 20.6576 112.464 20.6127L113.747 19.3049C113.833 19.2178 113.833 19.0785 113.747 18.9914L112.464 17.6837C112.376 17.5953 112.234 17.5938 112.145 17.6802C112.057 17.7668 112.055 17.9088 112.142 17.9973L113.272 19.1482L112.142 20.2992C112.055 20.3876 112.057 20.5296 112.145 20.6162C112.189 20.6589 112.246 20.6802 112.303 20.6802Z" fill="#3F3D56"/>
<path d="M110.145 20.6802C110.202 20.6802 110.259 20.6589 110.303 20.6162C110.392 20.5296 110.393 20.3878 110.306 20.2992L109.176 19.1482L110.306 17.9973C110.393 17.9088 110.392 17.7668 110.303 17.6802C110.214 17.5935 110.072 17.5952 109.985 17.6837L108.701 18.9914C108.615 19.0785 108.615 19.2178 108.701 19.3049L109.985 20.6127C110.029 20.6576 110.087 20.6802 110.145 20.6802Z" fill="#3F3D56"/>
<path d="M42.9814 17.4344H45.3686C45.6408 17.4344 45.8613 17.6541 45.8613 17.9254V20.3064C45.8613 20.5777 45.6408 20.7974 45.3686 20.7974H42.9814C42.7091 20.7974 42.4864 20.5777 42.4864 20.3064V17.9254C42.4864 17.6541 42.7091 17.4344 42.9814 17.4344Z" fill="#3F3D56"/>
<path d="M48.8313 17.4344H51.2186C51.4908 17.4344 51.7113 17.6541 51.7113 17.9254V20.3064C51.7113 20.5777 51.4908 20.7974 51.2186 20.7974H48.8313C48.5591 20.7974 48.3363 20.5777 48.3363 20.3064V17.9254C48.3363 17.6541 48.5591 17.4344 48.8313 17.4344Z" fill="#3F3D56"/>
<path d="M37.469 17.5464H39.8563C40.1285 17.5464 40.349 17.7662 40.349 18.0375V20.4185C40.349 20.6898 40.1285 20.9095 39.8563 20.9095H37.469C37.1968 20.9095 36.974 20.6898 36.974 20.4185V18.0375C36.974 17.7662 37.1968 17.5464 37.469 17.5464Z" fill="#3F3D56"/>
<path d="M73.451 18.4522H92.533C92.866 18.4522 93.1338 18.7213 93.1338 19.0509C93.1338 19.3805 92.866 19.6495 92.533 19.6495H73.451C73.1202 19.6495 72.8502 19.3805 72.8502 19.0509C72.8502 18.7213 73.1202 18.4522 73.451 18.4522Z" fill="#3F3D56"/>
</g>
<defs>
<clipPath id="clip0_736_14765">
<rect width="169" height="168" fill="white" transform="matrix(-1 0 0 1 169 0)"/>
</clipPath>
</defs>
</svg>
